<svg id="Layer_1" data-name="Layer 1" xmlns="http://www.w3.org/2000/svg" viewBox="0 0 210.51 220.54"><defs><style>.cls-1{fill:#202020;}.cls-2{font-size:12px;font-family:TwCenMT-Condensed, Tw Cen MT Condensed;}</style></defs><title>Signature</title><path class="cls-1" d="M19.24,101.17a1.73,1.73,0,0,0,.16-.18C19.31,101.19,19.24,101.28,19.24,101.17Z" transform="translate(-10.41 -7.2)"/><path class="cls-1" d="M20.83,98.39a7.74,7.74,0,0,1-1.42,2.6C19.78,100.34,20.26,98.45,20.83,98.39Z" transform="translate(-10.41 -7.2)"/><path class="cls-1" d="M18.42,100.83c.22-.24.42-.5.63-.75C18.89,100.64,18.73,100.43,18.42,100.83Z" transform="translate(-10.41 -7.2)"/><path class="cls-1" d="M19,100.78l.14.15c-.14.12-.3.24-.45.35C18.84,101.12,18.95,101,19,100.78Z" transform="translate(-10.41 -7.2)"/><path class="cls-1" d="M26.92,67.7c-.13.05-.24.06-.32,0Z" transform="translate(-10.41 -7.2)"/><path class="cls-1" d="M28.88,66.09c.13-.17.22-.29.29-.4A1.44,1.44,0,0,1,28.88,66.09Z" transform="translate(-10.41 -7.2)"/><path class="cls-1" d="M25.94,69.62l.18-.38A1.39,1.39,0,0,1,25.94,69.62Z" transform="translate(-10.41 -7.2)"/><path class="cls-1" d="M14.24,93.19c-.29.3-.56.6-.76.82C13.65,93.24,14,93.31,14.24,93.19Z" transform="translate(-10.41 -7.2)"/><path class="cls-1" d="M36.82,58.16,36.73,58C36.85,57.93,36.94,57.92,36.82,58.16Z" transform="translate(-10.41 -7.2)"/><path class="cls-1" d="M31.46,66.92a.26.26,0,0,1-.15-.15l.09-.09Z" transform="translate(-10.41 -7.2)"/><path class="cls-1" d="M25.41,71.23v0l-.25.25C25.22,71.34,25.3,71.25,25.41,71.23Z" transform="translate(-10.41 -7.2)"/><path class="cls-1" d="M38.7,55.43a1.61,1.61,0,0,1,.51-.17C39,55.49,38.77,55.54,38.7,55.43Z" transform="translate(-10.41 -7.2)"/><path class="cls-1" d="M29.19,65.64h0l0,.05Z" transform="translate(-10.41 -7.2)"/><path class="cls-1" d="M29.63,69.79l.34-.43A.81.81,0,0,1,29.63,69.79Z" transform="translate(-10.41 -7.2)"/><path class="cls-1" d="M14.24,93.19l.25-.25A.5.5,0,0,1,14.24,93.19Z" transform="translate(-10.41 -7.2)"/><path class="cls-1" d="M17.88,103.6c-.23.27-.38.25-.49.21A1.69,1.69,0,0,1,17.88,103.6Z" transform="translate(-10.41 -7.2)"/><path class="cls-1" d="M64.94,8.67,65,8.56A.32.32,0,0,1,64.94,8.67Z" transform="translate(-10.41 -7.2)"/><path class="cls-1" d="M57.39,18.84a.68.68,0,0,1-.2.07C57.22,18.79,57.32,18.78,57.39,18.84Z" transform="translate(-10.41 -7.2)"/><path class="cls-1" d="M54.15,30.66c.25-.82,1.11-1.27,1.53-1.85l-.3.1.54-.51-.24-.15c.77-.92,1.35-2.32,2-2.43l-.45-.13,1-.86-.66.43a27.57,27.57,0,0,1,2.38-3.08H59.7c.06-.24.25-.33.43-.5h-.31c1.26-1.74,1.11-2.55,2.69-4.37.32-.57-.27.25-.4.18A2,2,0,0,1,63,16.44c-.43-.07-.91.83-.73,0,.47-.34-.51.1.1-.65l.63,0c.23-.49-.27-.31.25-1,.73-.67-.2,1.3.74.06.41-.66,0-2,1.06-3.09.53-1.22-1,.11.1-1.29l-.93.75c.05-.33-.26-.32.27-.9a2.33,2.33,0,0,0,1-.67c-1.28,1.16.38-1.54-.93-.54l.35-.47c-.06,0-.11,0-.12,0L65.24,8c-.37.33-1.06,1.24-1.06.59l.57-1c-.4.09-.26-.32-.48-.4L61.92,9.62c.21,0,.58-.34.62-.1-.39.81-.67.42-1,1.24l.39-.17c-.11,0-.2.09-.12-.08,0-.32.26-.33.38-.25.07.4-.57,1-.88,1.07-.59.9.29.47.23.72-.71.18-1,1.49-1.57,1.91l.5-.18a2.87,2.87,0,0,1-1.19,1.65h.31c-.69.91-.31,1.86-1.54,2.07h.21c-.2.43-.44,1.13-.91,1.35a.31.31,0,0,1,.07.38c-.43,0-.48.57-.82,1.17.33-.33.62,0,1-.3-.21,1.14-1,.53-1.46,1.27-.11.57.48-.26.69-.27-1,1-.72,2.93-1.95,3.16l.09-.65c-.47.35-.63.6-.52.59a.26.26,0,0,1,.28-.17c-.53,1.64-2,1.8-2.76,3.29.21,0,.39-.18.51-.11-.28.74-1.14.15-1.53,1.38l.3-.1c-.13.41-.53.51-.55.44.62.44-1.47,2.19-1.11,3.46a4.64,4.64,0,0,0-2,2.15c0,.89.79-.3,1,.17-.32.51-.84.54-1.2,1.38-.37-.21.23-2-.88-.67l.07.32a1.59,1.59,0,0,1,.3-.59c.47-.27.08.4.12.55l-1.08,1.45c-.45-.13.22-1,.18-1.14-.7,1.25-1,3.06-2,4l.21,0c-1.23,1.23.18,1.27-1.16,2-.28.66.54,0,0,1-.16.26-.21,0-.23-.06-.83,1,.06.72-.93,1.54l.54,0c-1,1.06-2.55,1.92-3,3.09.35.13.73-.55,1.13-.67-1.46,1.1-2.18,3.44-3.3,4.59,0-.56-1,.26-.71-.74.54,0,.52-.54.84-1C36.14,50,36,53.22,35.12,53l.2.39c-.17.18-.72.56-.61.14L34,55.13c.55-.38,1.76-1.16,1.62-1.71.59-.22-.14.74.47.6-1.12.68-.14.75-.87,1.71-.18-.74-1.23.66-1.43.48a3.22,3.22,0,0,1-1.1,1.21,24.25,24.25,0,0,1-1.54,3c.36-.28.88-.75,1.15-.53-.44.37-.74.9-.45,1.18,1.6-1.31-.47-1,.82-2.28.61-.15.94-.51,1.52-1.22,0,.48.2.39.38.69-1.38.47-1.53,2.44-2.66,3.45-.55.39-.83-.31-1.62.83l.35-1.17c-.43,1.26-.4.12-1,1l.48-.22a1.72,1.72,0,0,1-.82,1L30,63c-.13.34-.4.94-.65.81a.47.47,0,0,0,.19.25c-.1,0-.23.14-.42.51.17-.18.23-.35.36-.29-.89,1.32.26.58-.26,1.41.17-.08.15.23,0,.57-.64-.39-1.7,1.25-2.31,1.49h0l-.91,1c.19-.21.22.15.1.53l0-.06c-.1.43,1,0,.15,1l-.52.47c.08-.09.13.07.15.15l-.51.5c.1,1.26-1.32,1.53-1.61,2.78.12-.34.43-.79.51-.48a1.07,1.07,0,0,1-.47.64H24L22.41,76c.31,0,1-1.19.93-.54.13.47-.51.89-.74,1.24-.15-.14.07-.91-.4-.27,0,.13-.14.88.15.64a16.73,16.73,0,0,1-1.88,2c0,.24.21,0,.29-.13l0-.08c.33-.37.48.18.75-.76.61.24-.49,1.29-.81,2.07l1-1c-.28,2.4-2.57,4.6-3.61,6.56.12-.67.55-1.06.06-1.23a15.88,15.88,0,0,0-1.41,2.17l.08-.09c-.1.75-1,1.38-.81,2,.39-.14.24-1,.75-.77l-.85,1.52c.55-.33.84-1.52,1.23-2.07.2-.44-.52.81-.74.44a3.9,3.9,0,0,1,2.11-2c.57-.25,0,.81-.11,1.08A6.33,6.33,0,0,0,16,90.27v1c-.69.54-1.25-.11-1.78,1.26l.46-.26a1.9,1.9,0,0,1-.14.68c.47-.47,1-1,1.46-1.35.22,1-1.31,2-1.9,3,.1,0,.29-.4.5-.45-.58,1.69-1.95,3.19-2.42,4.56.11.65.51-1.08.84-.67-.37.66-.22,1.55-.64,1.65.6-.18-.32,1.65.49.4-.14,1.2-.33,2.12-.5,3.37a19.38,19.38,0,0,0-.13,4.13c0,.06,0,.05.07,0l.1,0,.21-.07.42-.15a.85.85,0,0,1,.23-.6,3.22,3.22,0,0,1-.39.18l-.2.07-.1,0s-.07,0-.06,0a5.47,5.47,0,0,1,.32-2.38c.18,0,.08.42,0,.85s-.17.87-.07.79a3.47,3.47,0,0,1,.32-1.43c.26,0,.19.38.12.84,0,.19.11.2.23.19l-.34.38c.95.12.24,1.16,1.87,0,.59-.82,0-.31.07-.94.15,0,.47-.34.77-.63s.56-.54.81-.47c-.24.25-.49.48-.75.72.59-.32,1.09-.82,1.55-1.1a.33.33,0,0,0-.32,0c.5-.3,1-.94,1.39-1l-.25-.41c0,.4-.74,1.27-1,1.19-.22-.33.64-.95.9-1.35a4.55,4.55,0,0,1-.91.82,2.62,2.62,0,0,1-.6.28,1.75,1.75,0,0,0-1,.75l.18,0a1.59,1.59,0,0,1-1,.76c-.32.08-.55,0-.83.18a1.23,1.23,0,0,0,.33-.66,2.83,2.83,0,0,1-.7.52,4.59,4.59,0,0,1-.23-1.52c0-.57,0-1.12,0-1.76a2.72,2.72,0,0,1,.52-.41l-.33-.08c.06-1.13.5-.14.63-.85-.06.27-.11.21-.2.24.69-1.17-.15-.78.15-1.47-.47.24-.47,1.36-.87.92.66-1.22,1.14-3.26,2-3.15.53-2.44,2.42-5,3.46-6.87,0-.33-.18.11-.23,0,.82-.53,1-2.68,1.42-2.49a1.4,1.4,0,0,0-.15-.87,7.31,7.31,0,0,0,1.2-1.51l-.34.39,0-.08.48-.56v0A26.9,26.9,0,0,1,24,80.44c-.67.66-.34-.44-.69-.15,1-.38,1.9-2,2.59-3.44-.13-.06-.17-.22-.35-.12l.68-.65-.21,0c.66-1.47,2.17-2.64,2.41-3.72-.39.53-.52.47-.75.42a24.67,24.67,0,0,1,2-3,.2.2,0,0,1-.18,0,3.15,3.15,0,0,1,.72-.9l-.27-.21a19.33,19.33,0,0,1,1.41-2c-.16-.46,1.28-1.55,1.62-2.45.25-.27-.73.49-.21-.38.71.24.68-1.13,1.4-.8l.2-.91.44,0c-.26-1,.86-.82,1.22-1.91-.1,0-.19.1-.21,0,.25-.27.72-1,.57-.31.29-.52,1.49-2.17.67-1.6.23.06-.36.68-.62.95-.27-.21.3-.92.1-1.3a1.64,1.64,0,0,0,.25-.12l-.12-.22c.89-.77,1.24-1.89,2.08-2.35-.07-.09,0-.31.18-.62l.37.2.6-1-.82.16c.57-1.18,1.65-1.61,2.29-2.47-.46-.6,1.31-1.66,1.26-2.78l-.6.62c1-1.46.84-1.93,1.92-3.23a19.12,19.12,0,0,0-1.26,3.33c.83-1.92,2.22-2.84,2.87-4.67-.21,0-.55.37-.46-.12.5-.12.94-1.53,1.15-1.06.19-.58-.09-.87.05-1.21l1.5-1.4h-.1c1-3.38,3.92-4.95,5.41-8l-.23-.07.74-.53c-.55.43-.08-.4-.22-.55L55,30.46A.48.48,0,0,0,54.15,30.66ZM38.86,54.72l-.29.43a.55.55,0,0,1-.18.27l.18-.27C38.66,54.89,38.6,54.63,38.86,54.72Zm-23.37,41c-.27.15.08-.34.11-.51l-.36.73C15.31,96,15.42,95.77,15.49,95.67Zm21-42.33-.1-.39.38-.2Zm3.76-6.26-.52.53,0-.08.52-.53Zm6.22-5.67-.12.09.12-.09c.47-.37.16-.83.82-.95C47.35,41.15,46.79,41.22,46.47,41.4Zm-6.7,10.89a1.26,1.26,0,0,0-.32.43c.21,0,.68-.31.54,0-.3.11-.77.8-1,.66C39.61,53,39.19,52.11,39.77,52.29ZM30.94,67l.06-.17-.52.47Zm-1.79,2.56c-.5.14-.91,1-1.3,1.54.19.3.83-.1,1.18-.8C29.71,69.63,28.78,69.75,29.15,69.54ZM42.21,47.23l-.31,0,.07-.16-.52.53c.2-1,1.11-1.22,1.45-1.58C42.65,46.39,41.53,47,42.21,47.23Zm-16.45,28c-.51.47-1.33,1.39-1.5,1.17.4.27,1.06-.47,1.2-.73A1.24,1.24,0,0,1,25.76,75.25ZM25,74.78a4.21,4.21,0,0,1,1.63-1.11c-.29.93-.95.86-1.12.64-.51.47-.18.51-.3.85Zm1.66-.22.13-.38c.05-.5-.38-.85.42-1.15l-.42,1.15A.82.82,0,0,1,26.65,74.56Zm-3.9,7.09.33-.27c-.2.34-.28.34-.33.27l-.28.22C22.72,81,22.66,81.5,22.75,81.65Zm2.84-5.48.59-1C25.95,75.14,25.71,75.82,25.59,76.17Zm-3.09,5.06c.2-.44.73-1.57.68-1.4C23.34,80,22.76,81,22.49,81.22Zm-9.92,22.25.06-.63a1.62,1.62,0,0,0,.35.07C12.84,103.09,12.7,103.27,12.57,103.47Zm1.58-7.79.1.23-.17.38Zm3.31-7a.23.23,0,0,0,.24.07.46.46,0,0,1,.25-.17.35.35,0,0,1-.25.17,1.73,1.73,0,0,0-.4.9c.21,0,.4-.47.59-.58,0,.81-1.77,1.67-.53,1.8-.26.2-1,1-1,.57a10.7,10.7,0,0,0,1.12-2.76.27.27,0,0,1,0-.27A.69.69,0,0,1,17.45,88.67Zm4.7-9.36a1.23,1.23,0,0,1,.32-.37c.19-.18.4-.29.5-.15-.41.47-.34.07-.5.15A1.94,1.94,0,0,0,22.16,79.32ZM23,77.66l-.65.74.45-.3-1.1,1C21.86,78.29,22.65,77.62,23,77.66Zm0-.4.34,0-.39.13.06-.09h-.08l.92-1.34ZM31.53,63.1c-.52-1-1.3.9-1.85,1,.24.22.37,1,1.14-.38-.4,1.35-1,.44-.67,1.54a4.85,4.85,0,0,1,1-1.25l-.35.69C31.49,64.56,31.09,63.47,31.53,63.1Zm4.08-7.24.54-.86-.56.79ZM48.55,34.39c-.23-.06.14-1.38.66-1.42C48.9,33.56,48.5,34.16,48.55,34.39Zm5.94-9-.79.85c-.3-.47.58-.84.8-1.33C54.82,24.91,54.45,25.17,54.49,25.41Zm4.14-6.16L58.9,19l-.63,0Zm-.84,0c-.06-.32-.59.27-.67.44Zm3.42-5.77-.24.41.61-.1Zm0,.92c-.33-.09-.66-.38-1.1.65.25.23.42,0,.52.54a1.8,1.8,0,0,0,.4-.74c-.18.17-.23.49-.45.42a1.58,1.58,0,0,1,.64-.87.38.38,0,0,0,.36,0A.36.36,0,0,0,61.21,14.43Zm-2,3.47a.81.81,0,0,0-.07.35h-.11a.3.3,0,0,1,.17-.36c.05-.16.13-.33.2-.51-.17-.26-.76.25-1,.32.27-.25.68-.35.8-.83-.1,0-.12-.08-.29.17l.32-.57c.75-.39.45.27.16.92a.39.39,0,0,1,0,.28C59.48,17.8,59.36,17.84,59.25,17.91Zm3.5-4-.27.25c-.2.09-.22-.07-.33-.07C62.42,13.79,62.89,13.45,62.76,13.94ZM50.88,31.82c.06-.25-.52,0-.74.53l-.2-.47c.24.14.8-.78.89-.86C51.26,31.08,50.89,31.33,50.88,31.82ZM37.69,53c-.56-.11-1,1.23-1.26,1.42C36.69,53.72,37.41,52.27,37.69,53Zm-1,2.15c-.2.32-.21.43-.42.26-.19.1-.22.43-.41.53.17-.75.51-.49.82-.79a3.36,3.36,0,0,1,.2-.29A.89.89,0,0,1,36.66,55.12ZM44.27,42.7l.6-.21.38-.67Zm5-6.66c-.22-.07.25-.82.44-.92-.28-.11-.57.41-.85.79a.88.88,0,0,0-.2.24,2,2,0,0,0,.2-.24c.15-.11.22.07.3.13l-.05.25.42-.51ZM57.6,24a1,1,0,0,1,.48-.82A1.42,1.42,0,0,1,57.6,24ZM47.17,39.9c.35-.84-.61.12-.42-.45l-.22.41c.14-.81.57-.28.78-.78l-.14.33c.09.39.46-.36.68-.3C47.72,39.53,47,40.23,47.17,39.9ZM58.23,23.38c.26-.9.66-.43,1-.85C59.06,23.26,58.67,22.87,58.23,23.38Zm-7.3,12.23,0,.08.53-.52,0-.08Z" transform="translate(-10.41 -7.2)"/><path class="cls-1" d="M56.37,20.8a1.34,1.34,0,0,1,.26-.41A2.76,2.76,0,0,1,56.37,20.8Z" transform="translate(-10.41 -7.2)"/><path class="cls-1" d="M33.81,56c.06.06.05.14,0,.25S33.78,56.11,33.81,56Z" transform="translate(-10.41 -7.2)"/><polygon class="cls-1" points="22.35 50.16 22.32 50.22 22.27 50.25 22.35 50.16"/><path class="cls-1" d="M17.74,104.31c.57-.07-.29.38-.54.63C17.47,104.67,17.41,104.36,17.74,104.31Z" transform="translate(-10.41 -7.2)"/><path class="cls-1" d="M15.55,105.48a1.07,1.07,0,0,0,.64-.25A.86.86,0,0,1,15.55,105.48Z" transform="translate(-10.41 -7.2)"/><path class="cls-1" d="M17.12,104.3a4.07,4.07,0,0,1-.93.92A6.24,6.24,0,0,1,17.12,104.3Z" transform="translate(-10.41 -7.2)"/><path class="cls-1" d="M11.94,104.83a2,2,0,0,0-.08.85,2.69,2.69,0,0,0,.07.4c-.16-.71-.26-.55-.31-.11s-.08,1.12-.13,1.31A5.06,5.06,0,0,1,11.94,104.83Z" transform="translate(-10.41 -7.2)"/><path class="cls-1" d="M12.1,102.63a1.61,1.61,0,0,0,0,.42A.8.8,0,0,1,12.1,102.63Z" transform="translate(-10.41 -7.2)"/><path class="cls-1" d="M12,102.08a1.46,1.46,0,0,1,.65-1c.07.58-.37,1-.5,1.54C12.14,102.25,12.22,101.86,12,102.08Z" transform="translate(-10.41 -7.2)"/><path class="cls-1" d="M17,86c-.08.1-.22.36-.35.3l.41-.8C17.28,85.26,17,85.86,17,86Z" transform="translate(-10.41 -7.2)"/><path class="cls-1" d="M19.12,83.42c.36-.62-.14-.46.11-.75l.4.26Z" transform="translate(-10.41 -7.2)"/><path class="cls-1" d="M21.09,84.92l-.14.16.13-.21Z" transform="translate(-10.41 -7.2)"/><path class="cls-1" d="M20.34,80.15l-.71.18C20,79.86,20.42,80.06,20.34,80.15Z" transform="translate(-10.41 -7.2)"/><polygon class="cls-1" points="10.92 70.36 10.57 70.65 11.35 69.57 10.92 70.36"/><polygon class="cls-1" points="12.74 67.59 12.7 67.43 13.25 66.7 12.74 67.59"/><path class="cls-1" d="M41.68,44c.46.12-.46,1.25-.58,1.67C40.76,45.09,41.86,44.75,41.68,44Z" transform="translate(-10.41 -7.2)"/><path class="cls-1" d="M55.84,22,55,23C55.43,22.05,55.15,22.79,55.84,22Z" transform="translate(-10.41 -7.2)"/><path class="cls-1" d="M49.46,106.77a2.09,2.09,0,0,0,.13-.16C49.53,106.78,49.48,106.87,49.46,106.77Z" transform="translate(-10.41 -7.2)"/><path class="cls-1" d="M50.85,104.42a10.89,10.89,0,0,1-1.26,2.18C49.82,106,50.28,104.38,50.85,104.42Z" transform="translate(-10.41 -7.2)"/><path class="cls-1" d="M48.62,106.5l.53-.71C49.05,106.3,48.87,106.11,48.62,106.5Z" transform="translate(-10.41 -7.2)"/><polygon class="cls-1" points="38.81 99.23 38.96 99.36 38.59 99.69 38.81 99.23"/><path class="cls-1" d="M63.08,77.74a.27.27,0,0,1-.31-.05Z" transform="translate(-10.41 -7.2)"/><path class="cls-1" d="M64.85,76.41c.12-.14.19-.25.25-.34A1.06,1.06,0,0,1,64.85,76.41Z" transform="translate(-10.41 -7.2)"/><path class="cls-1" d="M62.27,79.39l.15-.33A1,1,0,0,1,62.27,79.39Z" transform="translate(-10.41 -7.2)"/><path class="cls-1" d="M52.4,99.56c-.28.23-.54.45-.73.63C51.83,99.54,52.14,99.64,52.4,99.56Z" transform="translate(-10.41 -7.2)"/><path class="cls-1" d="M71.92,69.75l-.09-.15C71.94,69.55,72,69.55,71.92,69.75Z" transform="translate(-10.41 -7.2)"/><path class="cls-1" d="M67.41,77.28a.29.29,0,0,1-.16-.14l.08-.07Z" transform="translate(-10.41 -7.2)"/><path class="cls-1" d="M61.87,80.8v0l-.23.21C61.69,80.88,61.77,80.81,61.87,80.8Z" transform="translate(-10.41 -7.2)"/><path class="cls-1" d="M73.52,67.41a1.46,1.46,0,0,1,.48-.13C73.8,67.48,73.61,67.52,73.52,67.41Z" transform="translate(-10.41 -7.2)"/><path class="cls-1" d="M65.13,76h0l0,0Z" transform="translate(-10.41 -7.2)"/><path class="cls-1" d="M65.84,79.74l.3-.36A.61.61,0,0,1,65.84,79.74Z" transform="translate(-10.41 -7.2)"/><path class="cls-1" d="M52.4,99.56l.24-.2A.38.38,0,0,1,52.4,99.56Z" transform="translate(-10.41 -7.2)"/><path class="cls-1" d="M48.76,109c-.12.25-.25.27-.38.26A1.08,1.08,0,0,1,48.76,109Z" transform="translate(-10.41 -7.2)"/><path class="cls-1" d="M94.54,26.64l.07-.09A.23.23,0,0,1,94.54,26.64Z" transform="translate(-10.41 -7.2)"/><path class="cls-1" d="M88.32,35.5a.61.61,0,0,1-.18.05C88.15,35.45,88.24,35.44,88.32,35.5Z" transform="translate(-10.41 -7.2)"/><path class="cls-1" d="M86.3,46c.17-.72,1-1.09,1.3-1.6l-.28.07.46-.44-.24-.14c.65-.8,1.08-2,1.66-2.1l-.45-.14.88-.73-.59.36a21.5,21.5,0,0,1,2-2.68h-.2c0-.21.21-.29.37-.43h-.3c1-1.51.84-2.24,2.16-3.82.25-.5-.24.22-.36.15,0-.36.54-.87.72-.93-.42-.08-.78.72-.7,0,.41-.29-.48.07,0-.58h.6c.17-.43-.29-.29.15-.87.63-.57-.07,1.16.72.09.33-.57-.22-1.81.71-2.74.39-1.08-1,.06,0-1.16l-.82.64c0-.29-.28-.3.17-.8a1.85,1.85,0,0,0,.93-.57c-1.11,1,.21-1.38-.94-.52l.29-.41c-.05,0-.1,0-.11,0l.33-.58c-.32.28-.89,1.08-1,.49l.45-.86c-.37.06-.28-.3-.5-.38l-2,2.08c.2,0,.52-.28.58-.06-.29.72-.59.35-.79,1.08l.36-.14c-.1,0-.18.07-.12-.08s.22-.29.34-.21c.1.36-.45.86-.73.93-.47.79.33.44.29.65-.66.14-.83,1.29-1.32,1.66l.46-.14a2.12,2.12,0,0,1-1,1.44h.3c-.57.8-.11,1.66-1.27,1.8h.2c-.15.38-.32,1-.75,1.17a.29.29,0,0,1,.1.35c-.41,0-.41.49-.67,1,.29-.28.6.06.91-.23-.1,1-.87.44-1.27,1.09,0,.51.43-.21.63-.22-.84.87-.41,2.6-1.57,2.76l0-.58c-.41.29-.55.51-.45.51s.15-.14.25-.14c-.36,1.44-1.74,1.52-2.34,2.84.2,0,.35-.15.48-.08-.2.65-1.08.09-1.34,1.17l.28-.07c-.09.36-.46.44-.49.37.64.43-1.22,1.9-.76,3a3.5,3.5,0,0,0-1.72,1.84c.05.8.73-.23,1,.2-.26.44-.76.45-1,1.18-.37-.21,0-1.74-.91-.63l.09.29a1.17,1.17,0,0,1,.24-.51c.43-.22.11.36.16.5L79,51.43c-.45-.14.12-.87.08-1-.56,1.09-.74,2.69-1.58,3.51h.2c-1.07,1,.28,1.15-.94,1.76-.21.58.52.06.08.86-.13.22-.2,0-.23-.06-.72.89.11.64-.78,1.33l.53.05c-.91.9-2.29,1.6-2.66,2.62.35.13.66-.46,1-.54-1.31.92-1.84,3-2.81,3.94-.07-.51-.95.18-.75-.69.53,0,.45-.46.73-.83-1.28.12-1.12,2.95-2,2.69l.22.35c-.15.15-.65.47-.57.09L69,66.91c.5-.31,1.61-.94,1.43-1.44.55-.17-.08.66.5.56-1,.55-.08.66-.71,1.48-.23-.67-1.14.52-1.34.36a2.41,2.41,0,0,1-1,1,17.74,17.74,0,0,1-1.26,2.63c.32-.23.8-.62,1.07-.42-.4.31-.65.76-.35,1,1.45-1.09-.53-.91.62-2,.57-.1.87-.4,1.37-1,.05.43.22.35.42.64-1.29.35-1.29,2.09-2.31,2.94-.5.32-.83-.32-1.5.66l.25-1c-.32,1.1-.37.09-.92.84l.45-.17c-.23.52-.37.68-.72.84l.65-.18c-.1.29-.32.82-.57.68a.52.52,0,0,0,.2.23c-.1,0-.21.11-.37.43.15-.16.2-.3.32-.24-.76,1.13.3.53-.15,1.24.16-.06.17.21.07.5-.65-.38-1.54,1-2.12,1.21h0l-.82.85c.17-.17.22.14.14.47l0,0c-.07.37.92,0,.21.86l-.47.39c.07-.08.13.06.15.14l-.46.42c.19,1.12-1.16,1.29-1.36,2.38.09-.3.36-.68.47-.39a.8.8,0,0,1-.42.54h.1L59.3,84.89c.3,0,.85-1,.86-.43.16.42-.43.76-.62,1.06-.15-.13,0-.8-.4-.26,0,.12-.07.78.19.58a11.77,11.77,0,0,1-1.68,1.71c0,.21.2,0,.27-.1l0-.07c.29-.31.48.18.68-.63.61.25-.4,1.12-.65,1.79l.93-.79c-.12,2.1-2.18,3.94-3.08,5.61.08-.59.47-.91,0-1.09a11.66,11.66,0,0,0-1.23,1.84l.07-.08c-.05.66-.89,1.16-.66,1.73.37-.1.16-.89.67-.64l-.72,1.3c.51-.26.72-1.3,1.06-1.76.16-.38-.45.69-.69.35a3.05,3.05,0,0,1,1.92-1.68c.54-.18.07.72,0,1A4.75,4.75,0,0,0,54,97.15L54,98c-.66.42-1.21-.18-1.69,1l.44-.18a1.4,1.4,0,0,1-.12.58c.45-.36.94-.75,1.38-1.06.26.92-1.21,1.63-1.8,2.49.1,0,.29-.32.49-.33-.57,1.43-2,2.51-2.61,3.52,0,.58.61-.79.88-.38-.43.48-.41,1.28-.84,1.25.63,0-.61,1.29.4.47a30.29,30.29,0,0,1-3.65,6,.33.33,0,0,1,.39.17,4.11,4.11,0,0,1,1.52-1.83c0,.58-.88.89-.79,1.1.24-.17.46-.63.72-.51,0,.73-.57.86-.83,1.25l0-.29c-.75.85-1.07.57-1.42,1l.64.31a2.64,2.64,0,0,0,.35-.7c-.07-.65-.26-.12-.64-.29.31-.25.4-1.5,1-1.64l-.37.85a17.06,17.06,0,0,1,1-1.42.33.33,0,0,0-.3.1c.35-.4.6-1,1-1.13l-.35-.33c0,.36-.32,1.21-.62,1.23-.32-.25.31-1,.46-1.36-.9,1.56-1.54,1.27-1.94,2.76l.24-.17A3.07,3.07,0,0,1,46,112l1.51.74a4.11,4.11,0,0,0,.56-.8c0,.25.11.36.22.3.5-1.79,1.53-3.29,2.27-5.24l.68-.36-.29-.19c.33-1,.53,0,.79-.58-.11.22-.14.16-.24.17.88-.88,0-.73.41-1.27-.47.12-.7,1.08-1,.6.88-.88,1.52-2.61,2.33-2.39.7-2.1,2.41-4.28,3.31-5.88,0-.29-.17.09-.23-.05.75-.43.84-2.32,1.22-2.13a1.26,1.26,0,0,0-.2-.78,5.46,5.46,0,0,0,1.07-1.27l-.31.33,0-.07.43-.47v0a19.08,19.08,0,0,1,2.54-3.77c-.61.55-.36-.41-.68-.17.92-.28,1.7-1.71,2.27-2.91-.13-.06-.18-.21-.35-.12l.61-.54h-.2c.55-1.27,1.93-2.22,2.08-3.17-.34.45-.46.39-.69.33a17.25,17.25,0,0,1,1.67-2.58.2.2,0,0,1-.17,0c.09-.29.42-.53.64-.76L66,78.8c.42-.44.64-1.19,1.22-1.67-.19-.42,1.13-1.31,1.38-2.09.22-.23-.67.4-.23-.35.7.25.57-1,1.29-.64l.12-.8.43,0c-.33-.92.77-.69,1-1.64-.1,0-.17.08-.2,0,.22-.23.62-.82.52-.24.25-.45,1.26-1.86.52-1.39.22.06-.29.59-.52.82-.28-.2.22-.8,0-1.15a1.43,1.43,0,0,0,.23-.1l-.13-.2c.8-.64,1.06-1.62,1.82-2-.07-.09-.06-.27.13-.55l.37.2.5-.89-.77.1c.45-1,1.45-1.36,2-2.1-.49-.56,1.14-1.41,1-2.41l-.53.52c.89-1.26.64-1.69,1.58-2.8a14.38,14.38,0,0,0-.93,2.92c.64-1.68,1.89-2.44,2.37-4-.2,0-.5.3-.45-.13.48-.09.77-1.32,1-.9.13-.51-.16-.79-.05-1.08l1.32-1.18H81c.64-3,3.35-4.25,4.5-6.93l-.22-.07.66-.44c-.49.37-.11-.36-.26-.5l1.39-1.31A.45.45,0,0,0,86.3,46ZM73.63,66.79l-.25.36a.4.4,0,0,1-.16.23l.16-.23C73.45,66.93,73.38,66.7,73.63,66.79Zm-20,35.11c-.27.1.09-.3.13-.44l-.37.61C53.4,102.21,53.52,102,53.59,101.9ZM71.24,65.44l-.12-.36.35-.16ZM74.36,60l-.46.45,0-.07.45-.45Zm5.5-4.78-.11.07.11-.07c.42-.31.08-.73.71-.81C80.69,55.07,80.15,55.11,79.87,55.25Zm-5.55,9.42A.92.92,0,0,0,74,65c.2,0,.62-.24.52.05-.28.09-.67.68-.92.54C74.21,65.25,73.74,64.47,74.31,64.67Zm-7.4,12.64,0-.15-.47.39ZM65.36,79.5c-.47.1-.81.84-1.15,1.3.2.28.79,0,1.08-.65C65.91,79.61,65,79.66,65.36,79.5ZM76.25,60.27H76l0-.14-.45.45c.11-.87,1-1,1.26-1.34C76.61,59.53,75.58,60.07,76.25,60.27ZM62.48,84.39c-.47.39-1.2,1.16-1.38,1,.4.26,1-.36,1.11-.58A.92.92,0,0,1,62.48,84.39Zm-.78-.46c.59-.62.81-.56,1.51-.9-.21.81-.86.71-1,.5-.47.39-.14.44-.24.74Zm1.6-.1.1-.33c0-.44-.42-.78.32-1l-.32,1A.61.61,0,0,1,63.3,83.82ZM60,89.9l.31-.22c-.17.29-.25.29-.31.22l-.26.18C59.93,89.35,59.9,89.76,60,89.9Zm2.38-4.71.51-.83C62.66,84.3,62.47,84.89,62.37,85.19Zm-2.66,4.32c.17-.38.61-1.35.57-1.2C60.46,88.51,60,89.34,59.72,89.51ZM49.27,108.27l.29-.54.17.42Zm3-6.54.08.21-.18.31Zm3-5.91a.26.26,0,0,0,.24.08.38.38,0,0,1,.24-.14.29.29,0,0,1-.24.14,1.3,1.3,0,0,0-.33.78c.2,0,.36-.4.53-.48.08.72-1.62,1.38-.41,1.57-.24.16-.91.8-1,.44a7.39,7.39,0,0,0,.93-2.38.23.23,0,0,1,0-.24A.56.56,0,0,1,55.31,95.82Zm4-8c.14-.21.23-.29.28-.31s.37-.23.48-.1c-.37.4-.33,0-.48.1A1.46,1.46,0,0,0,59.27,87.8ZM60,86.37l-.58.62.42-.25-1,.87C58.93,86.88,59.63,86.32,60,86.37ZM59.9,86l.32,0-.37.09,0-.08h-.07l.79-1.14Zm7.3-12.12c-.58-.92-1.19.74-1.72.75.25.21.43.91,1.08-.28-.29,1.18-.89.34-.54,1.34a3.59,3.59,0,0,1,.84-1.06l-.29.59C67.26,75.19,66.8,74.2,67.2,73.89Zm3.38-6.25L71,66.9l-.48.67ZM81.26,49.07c-.22-.06,0-1.23.51-1.24C81.53,48.35,81.19,48.86,81.26,49.07Zm4.89-7.8-.68.72c-.33-.43.48-.73.65-1.16C86.42,40.84,86.08,41.06,86.15,41.27Zm3.39-5.36.24-.22h-.6Zm-.8,0c-.09-.29-.54.22-.6.36Zm2.71-5.06-.19.36.58-.07Zm.09.83c-.32-.09-.67-.36-1,.54.27.22.4,0,.55.51a1.33,1.33,0,0,0,.31-.65c-.16.15-.17.43-.39.36a1.16,1.16,0,0,1,.53-.76.37.37,0,0,0,.34,0A.34.34,0,0,0,91.54,31.69ZM90,34.74A.67.67,0,0,0,90,35h-.1a.23.23,0,0,1,.13-.31c0-.14.09-.29.14-.45-.19-.24-.7.19-.92.25.23-.21.61-.28.68-.72-.1,0-.12-.07-.26.14l.25-.5c.68-.32.46.26.24.83a.37.37,0,0,1,.07.26C90.21,34.65,90.11,34.68,90,34.74Zm3-3.43-.24.21c-.18.07-.22-.07-.32-.07C92.63,31.16,93.05,30.87,93,31.31Zm-9.7,15.57c0-.22-.5,0-.66.44l-.24-.43c.25.14.7-.66.78-.73C83.57,46.22,83.24,46.44,83.27,46.87ZM72.36,65.18c-.55-.12-.85,1-1.1,1.2C71.46,65.8,72,64.54,72.36,65.18ZM71.54,67c-.17.27-.17.38-.38.21-.17.08-.18.37-.35.45.1-.66.46-.41.74-.66a2.45,2.45,0,0,1,.17-.25A.66.66,0,0,1,71.54,67Zm6.32-10.73.55-.16.31-.59Zm4.28-5.74c-.22-.07.17-.72.35-.8-.28-.11-.51.34-.75.67a.65.65,0,0,0-.17.21,1.5,1.5,0,0,0,.17-.21c.14-.09.21.08.3.13l0,.22.36-.44ZM89,40.11a.78.78,0,0,1,.38-.72C89.42,39.53,89.23,39.89,89,40.11ZM80.41,53.94c.27-.73-.57.08-.44-.42l-.18.36c.06-.72.53-.23.69-.66l-.11.29c.12.35.41-.3.63-.23C80.91,53.64,80.3,54.23,80.41,53.94ZM89.54,39.6c.16-.8.59-.36.88-.72C90.32,39.53,89.91,39.17,89.54,39.6Zm-5.9,10.66,0,.07.46-.44,0-.07Z" transform="translate(-10.41 -7.2)"/><path class="cls-1" d="M87.53,37.22a1,1,0,0,1,.21-.35A2,2,0,0,1,87.53,37.22Z" transform="translate(-10.41 -7.2)"/><path class="cls-1" d="M68.86,67.65a.21.21,0,0,1,0,.22S68.84,67.77,68.86,67.65Z" transform="translate(-10.41 -7.2)"/><polygon class="cls-1" points="57.55 61.64 57.52 61.69 57.48 61.72 57.55 61.64"/><path class="cls-1" d="M48.9,109.6c.47-.13-.08.3-.19.53C48.82,109.9,48.63,109.7,48.9,109.6Z" transform="translate(-10.41 -7.2)"/><path class="cls-1" d="M47.48,111.14a1.38,1.38,0,0,0,.47-.48A1,1,0,0,1,47.48,111.14Z" transform="translate(-10.41 -7.2)"/><path class="cls-1" d="M48.34,109.73a3.29,3.29,0,0,1-.39.93A2.53,2.53,0,0,1,48.34,109.73Z" transform="translate(-10.41 -7.2)"/><path class="cls-1" d="M48.39,108.65a1.47,1.47,0,0,0-.51.78c.4-1.28-.5.05-.7.07C47.63,108.8,47.88,108.92,48.39,108.65Z" transform="translate(-10.41 -7.2)"/><path class="cls-1" d="M49.27,107.13a1.3,1.3,0,0,0-.12.35A.65.65,0,0,1,49.27,107.13Z" transform="translate(-10.41 -7.2)"/><path class="cls-1" d="M49.3,106.59a1.29,1.29,0,0,1,.82-.51c-.09.58-.61.71-.85,1.05C49.41,106.84,49.58,106.57,49.3,106.59Z" transform="translate(-10.41 -7.2)"/><path class="cls-1" d="M54.68,93.45c-.07.08-.19.31-.32.25l.35-.68C54.93,92.78,54.72,93.3,54.68,93.45Z" transform="translate(-10.41 -7.2)"/><path class="cls-1" d="M56.6,91.26c.31-.53-.17-.42.05-.66l.41.26Z" transform="translate(-10.41 -7.2)"/><path class="cls-1" d="M58.6,92.7l-.13.14.11-.17Z" transform="translate(-10.41 -7.2)"/><path class="cls-1" d="M57.57,88.43l-.67.12C57.26,88.16,57.64,88.36,57.57,88.43Z" transform="translate(-10.41 -7.2)"/><polygon class="cls-1" points="47.95 78.99 47.63 79.23 48.31 78.31 47.95 78.99"/><polygon class="cls-1" points="49.52 76.63 49.46 76.49 49.95 75.87 49.52 76.63"/><path class="cls-1" d="M75.47,57.32c.45.13-.34,1.09-.42,1.46C74.69,58.29,75.71,58,75.47,57.32Z" transform="translate(-10.41 -7.2)"/><path class="cls-1" d="M87.13,38.23l-.71.94C86.75,38.31,86.55,39,87.13,38.23Z" transform="translate(-10.41 -7.2)"/><path class="cls-1" d="M68.83,58.29l.09,0C68.84,58.35,68.8,58.35,68.83,58.29Z" transform="translate(-10.41 -7.2)"/><path class="cls-1" d="M70,58.4a2,2,0,0,1-1.06-.07C69.17,58.24,69.86,57.87,70,58.4Z" transform="translate(-10.41 -7.2)"/><path class="cls-1" d="M68.69,57.42l.39.12C68.87,57.71,68.89,57.45,68.69,57.42Z" transform="translate(-10.41 -7.2)"/><polygon class="cls-1" points="58.47 50.71 58.47 50.91 58.25 50.73 58.47 50.71"/><path class="cls-1" d="M51.51,64.85a.52.52,0,0,1,.15.26Z" transform="translate(-10.41 -7.2)"/><path class="cls-1" d="M50.39,64.33l-.18,0S50.3,64.32,50.39,64.33Z" transform="translate(-10.41 -7.2)"/><path class="cls-1" d="M52.19,64.48l-.13.08A.19.19,0,0,1,52.19,64.48Z" transform="translate(-10.41 -7.2)"/><path class="cls-1" d="M60.73,60.66l.45.25C61,61.13,60.86,60.83,60.73,60.66Z" transform="translate(-10.41 -7.2)"/><path class="cls-1" d="M45.68,63.15l0,.16C45.64,63.26,45.6,63.2,45.68,63.15Z" transform="translate(-10.41 -7.2)"/><path class="cls-1" d="M49.2,62a.61.61,0,0,1,.06.2l-.06,0Z" transform="translate(-10.41 -7.2)"/><path class="cls-1" d="M52.63,64v0l.15,0C52.73,64,52.68,64,52.63,64Z" transform="translate(-10.41 -7.2)"/><path class="cls-1" d="M44.5,63.4a1.53,1.53,0,0,1-.27-.27A.36.36,0,0,1,44.5,63.4Z" transform="translate(-10.41 -7.2)"/><path class="cls-1" d="M50.19,64.36h0Z" transform="translate(-10.41 -7.2)"/><path class="cls-1" d="M50.41,61.65H50.2A.15.15,0,0,1,50.41,61.65Z" transform="translate(-10.41 -7.2)"/><path class="cls-1" d="M60.73,60.66l-.15-.08C60.64,60.57,60.69,60.6,60.73,60.66Z" transform="translate(-10.41 -7.2)"/><path class="cls-1" d="M67.89,58.74c-.12,0-.16-.09-.2-.21A.6.6,0,0,1,67.89,58.74Z" transform="translate(-10.41 -7.2)"/><path class="cls-1" d="M28.93,72.79h0Z" transform="translate(-10.41 -7.2)"/><path class="cls-1" d="M31.82,71.82a.57.57,0,0,1,.09.11S31.84,71.91,31.82,71.82Z" transform="translate(-10.41 -7.2)"/><path class="cls-1" d="M34.83,67c-.21.31-.63-.06-.87,0l.14.16-.29-.08.08.27c-.43,0-.85.39-1.12,0l.16.42-.52-.23.32.23a3.69,3.69,0,0,1-1.36.1l.08.15c-.06.11-.15,0-.24,0l.12.23c-.74.08-.82.68-1.68.6-.21.11.14.05.17.19s-.41.09-.49,0c.14.37.46.18.26.55-.22-.15.2.33-.15.33l-.22-.47c-.18.13.06.39-.29.41s.43-.68-.32-.59c-.46.17-.51,1.31-1,1.59a.57.57,0,0,0,.25.54c.12.08.12.16.15.41a.83.83,0,0,1,.18-.13c.06.21.17.33.15.49-.09-.07-.14,0,0,0-.1-.1.06.09.22.26s.32.29.27.32a.25.25,0,0,0,.11.06s0,0,0,.05a.21.21,0,0,0,.18,0c-.07.15-.24,0,0,.27a.22.22,0,0,0,.19.05c.06.17.14.2.2.33s.07.14.17.29l-.25-.32c-.07-.17.17.21.07,0l-.12-.18a.4.4,0,0,1,.07.12c.06.13,0,0-.1-.11s0-.16.12,0c.05-.06-.17-.49-.18-.57.13.21.12.21.21.15a.39.39,0,0,1,.39-.07l-.21-.27c.23-.43.55-.18.75-.11l-.12-.23c.43,0,.45-.92,1-.11l-.08-.16c.15-.11.37-.35.59-.12,0-.1,0-.24,0-.28.17.32.29,0,.52-.1-.18,0-.24-.49-.43-.56.27-.53.46.4.78.31.13-.27-.23-.2-.32-.35.55.11.73-1.27,1.27-.48l-.13.33c.24.14.35.11.3,0s-.1,0-.14-.11c.46-.61,1.1.41,1.63,0-.09-.15-.19-.17-.23-.31.22-.25.51.75.85.28l-.14-.16c.11-.16.3.08.3.14-.22-.73.93-.25.93-1.29.34.34,1,.43,1.15.15.11-.52-.4-.4-.44-.83.2-.07.45.29.7,0,.15.4-.32,1,.34,1.05v-.24s-.1.16-.21.14c-.25-.18,0-.3,0-.43l.66-.1c.2.41-.21.44-.21.56.46-.26.83-1.09,1.38-1l-.1-.14c.71.14,0-.9.75-.39.2-.2-.26-.42.09-.59.1,0,.1.14.1.2.5,0,0-.47.6-.24l-.26-.41c.61.13,1.42.7,1.77.34-.16-.33-.41-.2-.61-.42.81.39,1.39-.47,2.05-.35,0,.35.53.58.29,1-.27-.41-.31-.05-.51,0,.69.85,1-1,1.46-.17L46,67.05c.1,0,.41.19.31.36l.49-.46c-.31-.17-1-.59-1-.17-.31-.3.14-.34-.18-.69.62.41.14-.34.59-.38,0,.57.67.51.75.75.09-.15.48,0,.66.08.25,0,.61-.67,1.05-.65a1,1,0,0,1-.62-.53c.26.1.45,0,.34-.36-.92-.4.14.93-.62.73a1,1,0,0,0-.87-.39c0-.3-.06-.37-.13-.69.73.73,1-.31,1.65-.07.31.17.38.79.88.7l-.28.43c.33-.42.21.22.61.17l-.26-.23c.2-.15.3-.13.5,0l-.37-.36c.1-.1.29-.25.4,0a1.06,1.06,0,0,0-.07-.29c.05.06.13.09.26,0-.1,0-.15,0-.2-.1.57-.11-.07-.53.27-.62-.09-.08-.05-.25,0-.35.28.7,1,.53,1.29.85h0l.55.1c-.11,0-.09-.25,0-.38h0c.1-.17-.47-.69,0-.66l.3.12s-.05-.13-.05-.19l.3.1c.09-.79.8.11,1.08-.37-.1.1-.3.12-.3-.12s.2-.08.3,0l-.05-.07.95.13c-.15-.21-.6-.06-.5-.4s.35-.11.5-.14c.05.19-.14.46.16.46,0-.1.17-.39,0-.48a3.15,3.15,0,0,1,1.13.31c0-.11-.1-.14-.15-.15v.06c-.2,0-.2-.47-.45-.16-.25-.6.4-.34.64-.52l-.6-.25c.45-1.1,1.8-.59,2.55-.81-.16.26-.4.14-.21.61.54.08.45,0,.94-.06h0c.16-.33.64,0,.66-.44-.19-.23-.26.36-.44-.18l.6-.15c-.29-.26-.6.15-.85.15s.35,0,.39.35c-.55.16-.79-.15-1.23-.56s.11-.46.22-.5a1.14,1.14,0,0,0,1.59.1l.18-.51c.39.3.49,1.06,1,.83l-.23-.25c.07-.15.13-.21.19-.22-.28-.16-.58-.35-.84-.53.1-.71.91.08,1.35.09,0-.07-.2-.06-.28-.21.58-.32,1.43.23,1.93.23.13-.32-.44-.09-.45-.53.29.1.49-.33.65,0-.24-.52.58-.17,0-.57a4.79,4.79,0,0,1,3,0,.71.71,0,0,1-.08-.42,1.11,1.11,0,0,1-1.07-.37c.16-.32.57.29.6.12-.13-.12-.35-.08-.4-.35.22-.36.46.06.66.08l-.08.16c.67.28.5.91,1.1.65.18-.38,0-.28-.11-.7.17.14.59-.4.81,0l-.38.1a2.47,2.47,0,0,1,.75.17c0-.09-.06-.18-.12-.21.23.11.51.05.65.32v-.46c-.11.21-.48.29-.58,0,0-.4.41-.19.58-.24-.77,0-.88-.77-1.48-.36l.13.12c-.35.41-.84-.08-1.2,0a.3.3,0,0,0,0-.34c-.72.47-1.53.35-2.36.78L63,57.8l.06.34c-.39.24-.2-.45-.47-.35.11,0,.1,0,.14.11-.59-.26-.2.37-.51.33.22.32.57,0,.56.5-.59-.27-1.29.14-1.57-.63-.82.58-2.1.38-2.88.58-.06.17.1.09.09.21-.44-.35-.9.64-1,.24a1.21,1.21,0,0,0-.07.59,1.35,1.35,0,0,0-.78-.12l.21.05v.06l-.3-.07v0a4,4,0,0,1-2,.22c.41.15.1.51.3.61a1.31,1.31,0,0,0-1.67,0c.05.13.05.25.15.33l-.41-.14.1.14c-.5.33-1.37-.14-1.62.3.25,0,.31.12.41.32a3.52,3.52,0,0,1-1.29.27.27.27,0,0,1,.09.11c-.1.1-.3,0-.45,0l.11.32c-.29-.05-.52.23-.9.09,0,.39-.8,0-1.05.23-.15,0,.41.25.07.37-.33-.66-.45.16-.77-.56l-.19.39-.22-.34c0,.79-.51-.15-.79.22.05.07.1.08.11.14-.15,0-.45,0-.31-.23-.2.09-.94.19-.48.46-.11-.2.24-.14.39-.11.11.32-.24.32-.17.69a1.12,1.12,0,0,0-.14-.11l0,.21c-.52-.19-.79.21-1.25-.12a.18.18,0,0,1-.15.24l-.17-.39-.39.17.42.5c-.39.3-1-.24-1.35-.19.17.69-.79,0-.87.74l.35.07c-.64.12-.58.56-1.22.55A3.29,3.29,0,0,0,42,64c-.58.56-1.33.1-1.81.72.1.14.3.18.21.4-.25-.29-.59.24-.65-.2-.14.21,0,.59-.14.69l-.84-.24,0,.07c-.79,1.32-2.3.13-3.27.87l.09.21-.38-.23c.29.14,0,.3,0,.5l-.86-.25C34.51,66.72,34.68,67.14,34.83,67Zm9.52-3.31.18,0a.08.08,0,0,1,.12,0l-.12,0C44.46,63.74,44.47,63.93,44.35,63.69Zm16.43-5.26c.14.17-.11.09-.16.14l.31,0C60.94,58.42,60.83,58.45,60.78,58.43ZM45.4,66.23v.3l-.21-.16Zm-2.43,1,.3.06v.06L43,67.3Zm-3.53-1.09.07,0-.07,0c-.26-.12-.16.38-.48,0C39,65.65,39.27,66,39.44,66.14Zm4.24-1.67c.1,0,.15,0,.2,0-.11-.14-.36-.31-.27-.41.16.15.45.08.56.34C43.82,64.2,44,65,43.68,64.48Zm5.78-2.18,0,.05.31.11Zm1.15-.16c.26.29.56.1.81.08-.06-.31-.42-.56-.67-.42C50.35,61.67,50.82,62.3,50.62,62.14ZM42,65.73l.15.21,0,.05.3.06c-.19.45-.65-.06-.85-.1C41.73,65.92,42.34,66.33,42,65.73Zm10.89-4.31c.31.12.81.22.86.47a.64.64,0,0,0-.66-.49S53,61.44,52.92,61.42Zm.32.85c-.4-.08-.51-.28-.92-.6.25-.32.56.23.62.48.3.12.15-.15.25-.25Zm-.83-1.13-.11.11c-.08.25.08.77-.34.35l.34-.35A.15.15,0,0,1,52.41,61.14Zm2.77-1L55,60c.14,0,.18,0,.19.11l.16.09C55.11,60.48,55.2,60.27,55.18,60.12ZM53.12,61l-.4.1C52.82,61.34,53,61.14,53.12,61Zm2.12-.48a2.9,2.9,0,0,1-.51.26C54.68,60.56,55.09,60.46,55.24,60.56Zm9-2-.26,0,.05-.36Zm-2.9,1,0-.18.15,0Zm-2.68.82a.56.56,0,0,0-.09-.23.24.24,0,0,1-.14-.11s.09,0,.14.11a.27.27,0,0,0,.32-.18c-.09-.15-.25-.06-.35-.15.13-.46,1,.51.53-.55.14.09.59.28.53.51a1.45,1.45,0,0,0-.94.59c0,.06,0,.12,0,.14A.32.32,0,0,1,58.62,60.4Zm-3.48,1.47a.26.26,0,0,1-.2,0,.42.42,0,0,1-.26-.3c.26.06.17.23.26.3A.38.38,0,0,0,55.14,61.87Zm-.6.29.4.09-.25-.18.65.26C55.14,62.66,54.69,62.43,54.54,62.16Zm0,.25-.16-.23.2.22h0l0,.05-.6.06Zm-5.73,1.69c.16,1,.73.43,1,.81-.1-.3-.08-.85-.6-.62.33-.48.52.45.49-.4-.19.14-.55,0-.6,0l.24-.14C48.95,63.29,49,64.21,48.78,64.11Zm-2.71,1.28-.35.12.35-.06Zm-8.33,3.49c.1.2-.22.75-.46.38C37.49,69.12,37.74,69.05,37.74,68.87ZM34,70l.45.08c.06.51-.36.07-.53.21C33.8,70,34,70.15,34,70Zm-2.6.65-.15-.05.25.47Zm.33.62c0,.24.27.29.33.24Zm-2.29.94.14-.06-.22-.42Zm.15-.57c.1.31.16.74.52.44,0-.34-.15-.31-.08-.73-.14-.05-.22.11-.28.15.1,0,.17-.13.24.09a.25.25,0,0,1-.39,0,.46.46,0,0,0-.14-.25A.44.44,0,0,0,29.6,71.61ZM30.95,71a.33.33,0,0,0,.09-.16l0,.08c0,.15-.07.13-.13.09a1.39,1.39,0,0,1-.16.16c0,.29.32.42.43.57-.15-.05-.32-.3-.45-.1,0,.08,0,.14.14.11l-.22.11c-.35-.33-.12-.51.1-.69a.46.46,0,0,1,0-.21S30.9,70.92,30.95,71Zm-2-.23.15.05c.09.1.07.22.11.29C29.08,71.07,28.83,70.94,29,70.72Zm7.43-2c-.05.11.24.37.39.23l0,.44c-.09-.27-.45-.12-.5-.13C36.14,68.89,36.33,69,36.39,68.72Zm8.38-3.14c.27.47.6,0,.75.07C45.34,65.86,44.85,66.19,44.77,65.58Zm.7-.53c.13,0,.14-.11.23.15.1.08.15-.09.25,0-.15.32-.3-.08-.48-.13l-.12,0A.13.13,0,0,1,45.48,65.05ZM40.61,67l-.3-.3-.25.13Zm-3,.35c.1.21-.2.32-.3.23.11.27.3.17.47.14a.14.14,0,0,0,.12,0h-.12c-.08,0-.09-.2-.12-.3l.05-.11h-.25Zm-5,1.2c-.12.27-.17.2-.31.15A.22.22,0,0,1,32.54,68.5Zm6.42-2c-.25.24.3.37.15.58l.15-.08c-.15.39-.3-.25-.45-.11l.1-.1c0-.3-.25-.12-.35-.32C38.66,66.35,39.06,66.45,39,66.54Zm-6.75,1.85c-.23.36-.32-.23-.51-.23C31.87,67.84,32,68.38,32.21,68.39Zm4.59-2v-.06l-.29-.07v.06Z" transform="translate(-10.41 -7.2)"/><path class="cls-1" d="M32.55,71.38a.19.19,0,0,1-.17.05A.38.38,0,0,1,32.55,71.38Z" transform="translate(-10.41 -7.2)"/><path class="cls-1" d="M47,66.62a.18.18,0,0,1,0-.16A.23.23,0,0,1,47,66.62Z" transform="translate(-10.41 -7.2)"/><polygon class="cls-1" points="37.22 59.35 37.24 59.34 37.27 59.36 37.22 59.35"/><path class="cls-1" d="M67.75,59.13c.18.35-.12.07-.22.08C67.63,59.2,67.64,58.95,67.75,59.13Z" transform="translate(-10.41 -7.2)"/><path class="cls-1" d="M66.84,58.65a.44.44,0,0,0,.29.17C67.06,58.84,67,58.81,66.84,58.65Z" transform="translate(-10.41 -7.2)"/><path class="cls-1" d="M67.54,58.7a.69.69,0,0,1-.41.11C67.23,58.78,67.3,58.62,67.54,58.7Z" transform="translate(-10.41 -7.2)"/><path class="cls-1" d="M64.62,59.14a.32.32,0,0,0,.4,0c-.5.3.19.4.27.55C64.94,59.71,64.88,59.42,64.62,59.14Z" transform="translate(-10.41 -7.2)"/><path class="cls-1" d="M63.88,59.19a.26.26,0,0,0,.14-.08A.14.14,0,0,1,63.88,59.19Z" transform="translate(-10.41 -7.2)"/><path class="cls-1" d="M63.72,59.45c-.2,0-.32-.24-.45-.41.19-.23.42.13.61.15C63.74,59.23,63.61,59.23,63.72,59.45Z" transform="translate(-10.41 -7.2)"/><path class="cls-1" d="M58.42,62.21s.15,0,.2.11l-.3.1C58.17,62.39,58.36,62.26,58.42,62.21Z" transform="translate(-10.41 -7.2)"/><path class="cls-1" d="M57.08,61.94c-.25.07,0,.36-.15.33l-.15-.46Z" transform="translate(-10.41 -7.2)"/><polygon class="cls-1" points="46.01 52.38 46.1 52.4 46.01 52.42 46.01 52.38"/><path class="cls-1" d="M56.09,62.81l.35.44C56.19,63.19,56,62.79,56.09,62.81Z" transform="translate(-10.41 -7.2)"/><polygon class="cls-1" points="44.89 56.27 45.09 56.38 44.6 56.39 44.89 56.27"/><polygon class="cls-1" points="43.71 56.45 43.71 56.57 43.36 56.56 43.71 56.45"/><path class="cls-1" d="M42,68.07c-.21-.4.35-.41.44-.58C42.53,68.07,42,67.47,42,68.07Z" transform="translate(-10.41 -7.2)"/><path class="cls-1" d="M32.94,71.07l.51,0C33.12,71.31,33.35,71.07,32.94,71.07Z" transform="translate(-10.41 -7.2)"/><path class="cls-1" d="M199.89,59.8l1.51-.87C200,59.79,199.33,60.25,199.89,59.8Z" transform="translate(-10.41 -7.2)"/><path class="cls-1" d="M220.65,49.61c-1.38.57-3,1.18-4.66,1.9s-3.45,1.49-5.16,2.38l-2.58,1.27-2.47,1.32c-1.62.83-3.08,1.71-4.38,2.45A109.34,109.34,0,0,1,211.88,53,46,46,0,0,1,220.65,49.61Z" transform="translate(-10.41 -7.2)"/><path class="cls-1" d="M198.53,59.66c1-.69,2.14-1.29,3.22-1.93s2.16-1.26,3.28-1.83c-1.89,1.11-2.64,1.61-3.39,2A29.57,29.57,0,0,0,198.53,59.66Z" transform="translate(-10.41 -7.2)"/><path class="cls-1" d="M201.1,58.63l-.23.37c-1.18.61-2.3,1.34-3.45,2C198.64,60.2,199.84,59.36,201.1,58.63Z" transform="translate(-10.41 -7.2)"/><path class="cls-1" d="M161.33,29.64c-.48.61-.82,1-.72.6Z" transform="translate(-10.41 -7.2)"/><path class="cls-1" d="M166.22,34.85,164.52,38C165,37,165.43,36.25,166.22,34.85Z" transform="translate(-10.41 -7.2)"/><path class="cls-1" d="M153.27,43.14l1.53-2.67C154.33,41.33,153.8,42.27,153.27,43.14Z" transform="translate(-10.41 -7.2)"/><path class="cls-1" d="M160,70.45A57,57,0,0,0,154.63,76a29,29,0,0,1,3.55-4.06C158.94,71.21,159.42,71,160,70.45Z" transform="translate(-10.41 -7.2)"/><path class="cls-1" d="M121.64,100.25l-.32.68C120.78,101.54,120.49,101.81,121.64,100.25Z" transform="translate(-10.41 -7.2)"/><path class="cls-1" d="M162,37.28c.12,0,.1.15,0,.46l-.45.77Z" transform="translate(-10.41 -7.2)"/><path class="cls-1" d="M147.6,53.93l-.07.16-1.26,2.16A14.66,14.66,0,0,1,147.6,53.93Z" transform="translate(-10.41 -7.2)"/><path class="cls-1" d="M106.52,119l-.13.14,4.24,2.22c.36-.94.72-1.83,1.08-2.6a19.37,19.37,0,0,1-1,2.63l-4.45-2.33C106.51,118.88,106.57,118.87,106.52,119Z" transform="translate(-10.41 -7.2)"/><path class="cls-1" d="M164.32,38.36l0,0,.22-.41Z" transform="translate(-10.41 -7.2)"/><path class="cls-1" d="M162.33,34.43l2.15-3.3C163.64,32.56,162.86,33.72,162.33,34.43Z" transform="translate(-10.41 -7.2)"/><path class="cls-1" d="M160,70.45c.59-.56,1.23-1.07,1.86-1.58C161,69.63,160.5,70.08,160,70.45Z" transform="translate(-10.41 -7.2)"/><path class="cls-1" d="M184.3,72.3a16.17,16.17,0,0,1-2.65,2.19C182.62,73.59,183.56,72.86,184.3,72.3Z" transform="translate(-10.41 -7.2)"/><path class="cls-1" d="M78,70.09l.65-.73C78.34,69.68,78.13,69.91,78,70.09Z" transform="translate(-10.41 -7.2)"/><path class="cls-1" d="M91.21,81c.29-.33.6-.67.84-.9C91.6,80.75,91.28,81.06,91.21,81Z" transform="translate(-10.41 -7.2)"/><path class="cls-1" d="M91.59,89.37c-.95,1.17-1.93,2.33-2.93,3.46l-1.51,1.68-.33.36-.08.07-.15.12c-.4.32-.5.25-.64.38a1.68,1.68,0,0,0-.1.42.3.3,0,0,1-.15,0l0,0v0a1.21,1.21,0,0,1,0-.13l-.61,1.1c.15-.57.25-1,.37-1.43.06-.21.13-.42.2-.62s.07-.2.11-.3l.23-.59a43,43,0,0,1,4.18-8c-.3.22-.58.44-.87.66q2.31-3.9,4.94-7.64-1.54,2.12-3,4.28a185,185,0,0,1,11.19-16.52L98.52,64c-2.34,3.45-4.19,6-4.71,6.75l.67-.67a47.41,47.41,0,0,1-2.83,3.86l1-1c-4.56,6.3-7.57,10.25-10.78,14.32A167.86,167.86,0,0,1,69,101.69c-3.26,3.44,1.89-1.82,2-1.8a54.45,54.45,0,0,1-3.75,4l-2,1.9a4.67,4.67,0,0,1-.57.44.5.5,0,0,0,.27-.09l.19-.12.11-.08.16-.13,1.72-1.56c1-.9,1.31-1.17-.54.92-1.47,1.33-.93.92-.64.78s.22-.07,0,.26-.27.32-.52.58-.57.57-1,1a2.44,2.44,0,0,1-1,.29c-1.05,1.07-1,1.28-1.73,2,0,0-.1.12-.11.11V110l0-.41c0-.34.1-.82.21-1.46.28-1.19.39-1.43.44-1.33a4.72,4.72,0,0,1,.06.8c.08.6.12.63.6-1.71l.17-1,.08-.6,0-.32.11-.55.46-2.34c.16-.81.38-1.64.59-2.52a50.34,50.34,0,0,1,4.88-12.38c2.14-4.19,1.41-3.19.88-2.58-.26.31-.45.52-.17,0a43.88,43.88,0,0,1,2.85-4.67C72,80,71.19,81.2,70.41,82.36s-1.51,2.37-2.18,3.6c.43-1,.44-1.23.7-1.82a26.77,26.77,0,0,1,2.3-4c1.1-1.45,3.32-4.21,5.23-6.61-3.86,4.8-2.35,2.58-.8.21s3.38-4.7-.47-.34c.91-1.12,1.8-2.26,2.76-3.33-.37.39-.5.46-.34.22l1.9-2.17,2-2.09c-.63.63-1.5,1.45-2.34,2.35S77.44,70.23,76.77,71c-1.36,1.56-2.16,2.38-1.06.73a79.47,79.47,0,0,1,5.54-6.32c-1.76,1.42.3-.88-.2-.69a82.81,82.81,0,0,0-15.2,19.74c.57-.82,2.49-3.87,2-2.62-.8,1.46-1.36,2.49-1.78,3.3l-1.09,2a34.7,34.7,0,0,0-2.3,5.21l1.27-2.46c-.28.42-.64,1.22-.13,0,.79-2.05,1.35-2.85,1.48-2.8-.32,1.06-1.24,3-2,4.89-.43.95-.83,1.9-1.16,2.72s-.65,1.5-.85,1.93c-1.24,3.86-1.16,4.31-.95,4s.68-1.39.47-.53c-.29.71-.59,1.59-.89,2.59-.14.37-.34,1.37-.53,2.16l-.57,2.61c-.36,1.8-.6,3.77-.9,5.67l-.39,2.9-.19,1.43-.1.7,0,.35a1.65,1.65,0,0,0,0,.23c2.11-2,4-3.76,5.58-5.16-1.22,1-2.39,2-3.47,2.84l5-4.91,4-3.91L72.94,103l-1.13.81c5.82-6,7.88-9.73,12.66-14l-.69.57C85.93,87.66,89,83.46,91.21,81c0-.12.21-.67,1-1.8,1.38-1.29,3.31-4.3,6.11-8.51-2,2.72-1.74,1.57-3.86,4.39,3.61-5.77,4.32-5.72,6.89-9.25l-1.68-1.15c-.38.49-.81,1.06-1.28,1.74-1.42,2.27.14.17,1.49-1.59l1.26.86c-.61.85-1.17,1.62-1.37,1.84l1.29-1.89L100,64.89c-2.73,3.8-5.25,7.82-7.47,11.5s-4.11,7-5.85,9.44c.58-1.33,1.23-2.63,1.86-3.94-2.19,3.39-3.13,5.39-2.85,5A9,9,0,0,1,86.8,85c-1.36,2.73-2.47,5.2-3.52,7.53l-.83,2c-.3.7-.55,1.4-.79,2.11l-.76,2.13-.62,2.11c-.44,1.42-.77,2.87-1.14,4.38-.19.73-.34,1.58-.52,2.39l-.26,1.25-.13.63s0,.14,0,.13l.09-.09.18-.18,3.11-3.15,1.71-1.78c.64-.72,1.36-1.57,2.07-2.4-.4.33-1,.91-1.44,1.36l-.32.31-.23.18c-.13.09-.2.12-.18.05a62,62,0,0,1,5.18-5.41l1.39-1.39c.38-.38.79-.8,1.26-1.29.92-1,2-2.26,3.46-4L93.17,93c1.9-2.36,3.58-3.86,3.36-3.52-.42-.68,12.64-14.47,16-19.89,1.06-1,2.69-2.69,4.5-4.61l-1.25-1.07a85.42,85.42,0,0,0-9.07,11.61c-1.38,2.46-.59,1.48.46.17s2.38-3,2-2c-2.5,3.58-4.18,5.24-7.38,10.94-.48-.13,6-11.52-.64-1.09-.23.53-.45,1.07-.67,1.61.59-1.14,1.43-2.69,2.41-4.19,2.1-2.9-.9,2-1.18,2.75q-3.4,5.68-6.26,11.67c-.41.34.25-1.27,1.07-3.06s1.85-3.73,2-4.11a131.28,131.28,0,0,0-7.95,19.12l-2.17,6.48,3.88-5.58c2.42-3.49,4.89-6.77,7.27-9.6l-.7.62a73.22,73.22,0,0,0,5.81-7.43c.83-1.23,1.48-2.23,5-5.66,3.38-3.92-1.63,1,3.62-4.75,1.5-1.63.74-.56.52-.23,3.34-3.45,4-4.27,4.64-5a38.83,38.83,0,0,1,4.49-4.38l-1.7,1c4.22-3.94,8.76-7.73,13.17-11.29l-1-.85a116.26,116.26,0,0,0-6.84,11.66c.55-.33,3.25-5.32,4.63-7.12a148.53,148.53,0,0,0-9.94,18.46c-3.08,6.66-5.72,13.37-7.83,18.71.88-3.34-2.54,4.88-.27-2.15,1.12-1.62,2-5,3.63-8.59-1.73,2.74-4.08,9-5.91,14.87s-3.22,11.24-3.92,12.06l-.11,1.72v0l-2.14,6.8,4.77-5.43c1.18-1.34,4.18-4.55,2.32-2.11,1.32-1.65,2.63-3.31,3.91-5s2.58-3.35,3.84-5c-2.65,3.05-8.19,9-10.37,11.9L106,125.66l1.2-5.24c.09-.38.15-.71.19-1,.71-1.75.36-.31.06,1.05l-.92,4.07,2.42-3.29c.77-1,1.49-2,.35-1,5.85-6.15,3.12-4.17,8.67-10.95-2,3.47,5.92-6.45,5.86-6,1.67-2.34,5.65-7.34,7.22-9.25,3-4.07,9.3-13.91,13.83-20.69-1.82,2.5-4.68,6.46-4.77,6,2.36-3.22,4.74-6.91,4.8-7.77-4.13,5.76-4.59,6.82-4.91,7.78s-.51,1.8-4.34,7c-2.17,2.35-4.26,5.18-8.26,10.43,1.57-2.57.7-1.57,1.17-2.76,5.53-6,12.1-17.15,18.09-25.85a15.8,15.8,0,0,1,2.3-2.67,40.6,40.6,0,0,0,4.36-6.38q-2.08,3.81-4.25,7.57c4.77-8.27,1.42-1.76,5.58-8.47l-1.87,2.54c2.43-4.17,3.34-5.69,4.88-7.89l-2.46,3.3c1.26-2.28,3.6-6.48,3.86-6.41.23-.64.26-.89.19-.93a37.63,37.63,0,0,0,2.42-4.12A13.8,13.8,0,0,1,160,47.31c5.67-10.12.87-2.62,4.31-8.92-.63,1,.2-.92,1.34-3.22.1.08.35-.18.73-.7a14.28,14.28,0,0,0,1.37-2.32,11,11,0,0,0,1.07-3.78,5.88,5.88,0,0,0-.29-2.39A4.65,4.65,0,0,0,167,23.86l-1-.75-.75,1.07c-1.61,2.31-3.1,4.41-3.91,5.45l0,0q-2.71,4-5.34,8.13c1.08-1.65.13.26-1.22,2.74l.23-.4c-1.45,2.73,2.54-2.76-2.29,5.13l-2.59,4.12c.45-.74.14,0,0,.47l-2.59,4.29c-3,7.07-7.08,12.62-10.64,20.93,1.07-2.37,2.83-5.92,2.3-4.29a57.08,57.08,0,0,1-2.57,5.13l.27-.38Q133,83.16,129.48,91c.39-.59,1.54-3.1,2.41-4.94s1.51-3,.76-1c-.71,2.46-3,6.84-4.17,9.69,0-.44,2-5.77-.32-.49-.2.68-2,5.83-.95,3.49l-1.91,4.43-2,4.87c-.18.42-.32.78-.52,1.29s-.43,1.19-.58,1.78a16.75,16.75,0,0,0-.64,3.42,11.27,11.27,0,0,0,.1,2.86,7.84,7.84,0,0,0,.7,2.26c.22.37.33.47.33.43s-.12-.24-.24-.52a8.85,8.85,0,0,1-.66-1.94l-.14-.4a7.36,7.36,0,0,1-.06-2.07c0-.43.13-.71.2-1.08s.15-.89.36-1.87c.1-.49.25-1.11.47-1.89.11-.37.26-.88.39-1.25l.39-1.14c.2-.07.09.43-.2,1.41a23,23,0,0,0-1,4.89,8.75,8.75,0,0,0,1.07,5.48,6.31,6.31,0,0,0,.92,1.1,5.51,5.51,0,0,0,.55.49l.28.23.16-.14c.43-.38.83-.75,1.21-1.12l.19-.37-.19.33a12,12,0,0,0-1.14.94l-.14.13-.07.06-.12-.11-.49-.44a6.71,6.71,0,0,1-1.91-5.79,7.9,7.9,0,0,0,1.19,4.28l.36.46.42.42a6,6,0,0,0,.47.38l.12.09s.09.09.1,0l.14-.24,1.16-2,2.7-5.38,1.29-2.64,1.25-2.63c1.65-3.53,3.3-7.13,4.79-10.74a192.17,192.17,0,0,0,7.46-20.79c-1.12,4.64-2.58,8.36-1.92,8,1.69-4.77,2.3-6.89,2.93-9s1.2-4.22,2.43-9.12l-.22.84c.2-1.13.46-2.33.75-3.58L149,57.59l-3.25,3.67a10.52,10.52,0,0,0-.63,12.67,16.68,16.68,0,0,1-1.52-4.7c-.23-1.73,0-3.21.35-3.21a11.54,11.54,0,0,0,.86,6.66,11.39,11.39,0,0,0,4.34,5.15,13.25,13.25,0,0,1-2.8-2.76,12.61,12.61,0,0,1-2.09-4.38,11,11,0,0,1-.16-5.06,8.93,8.93,0,0,1,2-4l2-2.23-.71,2.88-.06.26c-.25,1.14-.15.76.11-.25l.77-3-2.11,2.29a10.5,10.5,0,0,0-2,3.46l-.41,1.44c-.07.3-.13.36-.16,0a9.33,9.33,0,0,1,2.33-5.2l3-3.35-1.07,4.36a91.07,91.07,0,0,1-4.71,14.58c-1.38,3.28,1.08-5.06,1.59-7.2.76-2.2,1.54-4.73,2.3-7.57l.3-1.12-.83.85a8.37,8.37,0,0,0-2.25,4.73A11.5,11.5,0,0,0,148.53,77a9.28,9.28,0,0,0,6,1.8,11.39,11.39,0,0,0,6-2.54,22.32,22.32,0,0,0,2.4-1.77,13.94,13.94,0,0,0,1.44-1.34,6.34,6.34,0,0,0,.67-.84,6.67,6.67,0,0,0,.71-1.22,9.77,9.77,0,0,0,1-4.56l0-2.22-1.71,1.39L163,67.32,165,65.94l1.56-1-.2,1.67-.09.75,0-.74,0-1.58-1.16,1c-1.47,1.3-2.47,2.15-3.2,2.84,1.09-.93,2.31-1.76,3.41-2.57l.64-.47v.76A11.5,11.5,0,0,1,162,74.79a18,18,0,0,0,2.18-3.43,11.36,11.36,0,0,0,1.09-4.74l.45.21a68,68,0,0,0-6.44,5.33,50.75,50.75,0,0,0-5.52,6.25c.17-.16.72-.86,1.31-1.59a17.35,17.35,0,0,1,1.63-1.76,67,67,0,0,0-8.9,14.16,63.45,63.45,0,0,0-2.89,7.52l-.52,1.87-.28,1-.23,1.09-.45,2.2-.35,2.21.09.47,0,.23c0,.07,0,.19.15.15a7.9,7.9,0,0,0,1.3-.11,7.19,7.19,0,0,0,2.34-.79c.72-.46.93-.7.85-.66s-.47.28-1,.55a7.31,7.31,0,0,1-2.14.69,7,7,0,0,1-1.25.08c0-.33,0-.66,0-1,.28-1.69.52-2.68.57-2.09l-.27,1.74-.05.85c0,.06,0,.16,0,.19h.24a3.37,3.37,0,0,0,.47,0,6,6,0,0,0,1.76-.49,10.38,10.38,0,0,0,2.79-2c.77-.74,1.39-1.45,1.87-2A8,8,0,0,1,152,99.9c-2,1.38,8-9.22.92-1.91,8.2-9.64,17.21-19.7,26.11-29.55l0,0a44,44,0,0,0-11.82,16.2c.51-.82.63-.75.44,0a40.08,40.08,0,0,1,5.46-9.48A31.44,31.44,0,0,1,179.22,69c-1.5,1.51-3.28,3.26-4.7,4.85a22.5,22.5,0,0,0-2.78,3.55c1.25-1.79,4-5.11,4.31-4.94-3.35,4.34-5.24,6.8-7,10.28l.82-2a68.69,68.69,0,0,0-3.84,8,23.5,23.5,0,0,0-1.69,6.51L164,97.11l1-1.52L167.29,92c2.44-4.05-.28-.14-.65-.29.95-1.22,2.72-4,4.74-6.54,1-1.32,2-2.56,3-3.65a20.38,20.38,0,0,1,2.43-2.47l-1.33,1.47-1.27,1.52c-.84,1-1.71,2-2.49,3.07a106.49,106.49,0,0,1,9.95-10.68,7.56,7.56,0,0,0-1.49,1.18c1.57-1.54,3.45-3.21,5.12-4.7a46.79,46.79,0,0,1,4.22-3.27l.68-1.12c-1,.86-2.93,2.63-4.79,4.22s-3.53,3.17-4.07,3.57c.1-.43,1.69-1.93,3.54-3.64s4.1-3.48,5.49-4.54c-1.54,1.16-2.82,2.24-4,3.2s-2.16,1.82-3.06,2.6c-1.83,1.54-3.18,2.84-4.51,4.06s-2.51,2.49-4,4-3,3.45-4.9,6.11l1.46-1.65c-2.54,3.44-5,7-7.38,10.45l1.42.51a47.62,47.62,0,0,1,2.85-10.1c-.63,1.84-.54,2.28-.19,1.45a40.92,40.92,0,0,1,11.6-17.57l-1.58-1.57c-5.62,6.45-11.46,13.1-17.65,20.37l-3.86,3.75,0,.47c-5.62,6.67-1.6,1.11-5.27,5.36,1.4-1.61,1.19-1.28,1.55-1.56-1.74,1.84-2.82,3-3.53,3.87a6.86,6.86,0,0,0-.92,1.18,4,4,0,0,1-.44.65,3.39,3.39,0,0,1-1.34.92,2.68,2.68,0,0,0,1.41-.67,14.37,14.37,0,0,0,1.8-1.76c1.41-1.54,2.39-2.57,1.74-1.46l-1.87,2c-.35.37-.58.61-.85.86s-.53.5-.82.72a6.06,6.06,0,0,1-1.86,1.08,3.71,3.71,0,0,1-1,.19h-.26c0-.06,0-.18,0-.26l.09-.55c.11-.68.2-1.35.35-2l.2-.93c.06-.33.14-.54.24-1,.4-1.66.92-3.16,1.36-4.47a15.75,15.75,0,0,1,2.33-4.65,52.9,52.9,0,0,1,6.86-11.93,53.6,53.6,0,0,1,10.12-10.08L164,66.67a9.61,9.61,0,0,1-.57,3.25,10.92,10.92,0,0,1-1.67,2.88,10.66,10.66,0,0,1-5.28,3.54,9,9,0,0,1-2.92.27,7.25,7.25,0,0,1-2.61-.82,8.69,8.69,0,0,1-3.53-3.86c-.43-.8-.33-.54-.2-.13s.43.9.21.62a11.81,11.81,0,0,1-1-4.44,7.2,7.2,0,0,1,1.57-4.74L145,61.72c-1,4.75-2,8.83-2.19,8.82a40.94,40.94,0,0,0-.84,5c-1.31,3.76-2.85,8.26-4.63,13,.47-1.14.9-2.29,1.34-3.44l-.08.4c-.61,1.64-1.27,3.26-1.92,4.88l0-.19c-1.63,4.26-3.46,8.73-5.46,13.13-1,2.21-2,4.39-3.1,6.53l-.44.86-.35.65c-.23.42-.45.83-.67,1.2l-.47.77c0,.12-.11-.06-.16-.09a1.22,1.22,0,0,1-.16-.21,2,2,0,0,1-.24-.47,3.38,3.38,0,0,1,0-1.92c-.15.6-.2,1-.27,1.2s-.17.21-.26.12-.25-.74-.4.22a13.9,13.9,0,0,1,1-2.93l2.9-7.06c2.11-5.21,4.54-11,6.78-16.2-.15,0,.1-.86-.54.31,1-2,1.93-3.92,2.94-5.86l-.52.72c2.37-5.36,5.19-10.81,7.84-15.76S150.28,56,152,52.52c-2.38,4.15-2.49,4.12-2.92,4.44,4-7.39,7.91-14.29,13.24-22.53-.31.42-.53.69-.59.68,1.31-2.21,3.08-4.76,4.58-6.92l-.09-.48,1.34-2-2.22.42a2.22,2.22,0,0,1,.81,1.88,8.45,8.45,0,0,1-.67,3.08,16.25,16.25,0,0,1-.74,1.6l-.93,1.7c-.62,1.13-1.25,2.26-1.89,3.35a73.35,73.35,0,0,1-4.3,7.87c-2.13,3.6-4.62,7.65-6.3,10.65-1.42,2.23,3.27-4.74-.53,1.6-1.14.54-5,8.2-6,8.27l-3.21,5.61-1.11,1c-2.39,5-4.83,6.82-9.3,13.65.32-.31.84-1,.64-.63-1.55,2.14-5.15,7-2.57,3.09-1.25,1.78-4.08,5.64-6.11,8.38s-3.23,4.39-1,1.88c-.46.26,3.31-4.52,4.91-6.61.09.49-3.89,5.68-4.57,7.2-.16.15-.72.8-1.15,1.26l-.4.87c-5.23,6.3-10.24,12.94-14.42,17.21a.92.92,0,0,1-.1.17l4.15,2.17a31.49,31.49,0,0,1,1.08-4.24h.44c.82-2.76,1.68-5.51,2.6-8.23-.64,1.21-1.23,2.43-1.85,3.66a108.56,108.56,0,0,1,4.38-11.84c1.5-3.53,3.07-6.79,4.65-10.34.07-1.06,1.65-4.52,3.63-8.44s4.33-8.31,5.7-11.41c-1,1.74-2,3.51-3,5.28,3.54-6.63,5.42-10,7.56-13.71l6.7-11.64-9.88,9-8.72,7.92c3.94-3.92,5.9-5.66,8.55-8.12L143.31,49,136,62.21c-1.45,2.59-3.31,5.85-6.36,12.21,2.22-4.43,4.47-8.34,6.71-12l9.4-15.3-13.6,11.78A197.23,197.23,0,0,0,113,77.3c.77-.57,3.27-3,1-.43a64.74,64.74,0,0,0-5.16,5.29c-1.82,2-3.21,3.59-2.68,2.66-2.77,3.38-2.93,4.23-4.61,6.31Q96.7,96.58,92.1,102.3l.34-.31-2.93,4.26,4.27,2.24A108.37,108.37,0,0,1,104.17,86a139.78,139.78,0,0,1,14.47-19.66l-4.36-3.76c-3.36,3.78-6.74,7.66-10.16,11.72l.49-.21-4.32,4.46c3.36-3.52-1.17,1.77-1.27,2.19L88.23,92.37C88.15,92.77,89.1,92.36,91.59,89.37Zm20.14,27.29c-.38,1.18-.71,2.38-1.06,3.57l-.29,1.08-3.8-2c.26-.31.53-.62.82-.94l-.8,1,3.76,2,.32-1.08C111.14,118.36,111.35,117,111.73,116.65Zm41.79-34.77c-1.11,1.39,1.3-2.19,2.06-3.16a53.63,53.63,0,0,0-3.32,5C151.94,84.47,153,82.61,153.52,81.88ZM109,116.08l.34-2.09q.49-1.26,1-2.5C109.9,113,109.49,114.55,109,116.08ZM129.79,67c-.92,1.52-1.81,3.05-2.71,4.59l.16-.42c.9-1.51,1.76-3,2.69-4.53ZM96.93,97.57c.22-.26.42-.5.68-.78l-.68.78c-2.7,3.13-3.28,4.75-5.67,7.16A37.35,37.35,0,0,1,96.93,97.57ZM117.25,99c-.67,1.63-1,2.43-1.43,3.65.46-.81,2-4,1.1-1.58-.85,1.61-2.88,7.29-3.16,7.29C115.72,103.48,116.34,99.74,117.25,99Zm46.14-63.55-.59,1.19,2.44-4.19Zm-1.59-1.19c-1.75,2.1-5.27,8.09-7.71,12.23-.35,1.23,2.37-2.83,5.25-7.69C163,33.29,160.21,36.41,161.8,34.26Zm-27.23,28-.9,1,.62-1.1c-.94,1.48-1.88,2.95-2.79,4.45,1-2,2-3.74,3-5.3l2.21-3.56-3.22,2.71c-3,2.49-5.42,4.31-7.22,5.9,1.63-1.53,5.58-4.65,7.08-6.07l4-3.8-2.69,4.93C134.3,62.16,134.2,62.52,134.57,62.26Zm4.05,14.47c-2.27,4.28-6,12.18-5.93,11.35.3.47,3.33-5.87,4.25-7.84C137.45,79.08,137.85,78.26,138.62,76.73Zm-.71-.62a117.57,117.57,0,0,1,6.46-11.18c-2.94,6.3-4.29,7.75-4.17,6.9a35,35,0,0,0-2.65,5.94Zm4.38-6,1.21-2.59c1.33-3.11,1.17-4,3.85-7.95-1.31,2.64-2.6,5.28-3.85,7.95C143.21,68.23,142.82,69.08,142.29,70.12Zm-15.14,42.16q-.25.36-.47.63l-.15.18.15-.27c.44-.77.5-.78.46-.54l.62-.9a9.62,9.62,0,0,1-.93,1.94C126.87,113.18,127.1,112.55,127.15,112.28Zm9-29.56q1.73-3.77,3.52-7.5C139.29,75.55,137.22,80.29,136.19,82.73Zm-9.5,31.39-.08.16-.48.93c-.19.29-.32,1-.71.46a3.46,3.46,0,0,1-1.1-2.19,6.82,6.82,0,0,1,.12-2.41,13.42,13.42,0,0,0,.25,2.78,3.59,3.59,0,0,0,.46,1,5.16,5.16,0,0,0,.34.42l.2.18c.06,0,.14.19.17.07.3-.53.57-1,.75-1.23Zm44.11-37-3.47,3.93L168.74,79Zm-20.25,7.34-.46,1.22c-.5.88-.89,1.81-1.35,2.72l.85-2Zm-5.8-15.92c.09.26.17.11.23-.35a5.22,5.22,0,0,1,.08-1.13,2.5,2.5,0,0,1,.17-.74c-.1.72-.21,1.42-.25,1.87a9.29,9.29,0,0,0,.76,3.65,10.72,10.72,0,0,0,.83,1.61,13,13,0,0,0,.86,1.11c-.21-.39-.79-1.27-1.24-2.27a9.32,9.32,0,0,1-.75-2.77,14.1,14.1,0,0,0,1.69,4.1A9.52,9.52,0,0,0,150.56,77a6.45,6.45,0,0,0,3.21.85c.67,0,.74-.18,0-.49.24,0,.56.07.93.06a11.9,11.9,0,0,0,1.23-.09,8.84,8.84,0,0,0,1.34-.29l.66-.2.61-.26c1.58-.68,2.54-1.43,1.62-.56a11,11,0,0,1-4.66,1.88,8.7,8.7,0,0,1-5.65-1,10.56,10.56,0,0,1-3.82-4.1,11.9,11.9,0,0,1-1.3-4.15,4.63,4.63,0,0,1-.1-1.77A15.77,15.77,0,0,0,144.75,68.59ZM123,112.18a16,16,0,0,1,1-3.47c.71-1.7,1.35-3,1.3-2.4-1.72,4.13-.82,1.41-1.3,2.4A17.33,17.33,0,0,0,123,112.18Zm4.45-12.88q-1.41,3.22-2.75,6.46l1.49-3.22-2.1,4.86c-.18.41-.34.79-.52,1.25s-.36,1-.51,1.46a17.14,17.14,0,0,0-.67,3,16,16,0,0,1,.38-2.6c.12-.45.22-.91.38-1.37s.3-.92.43-1.25c.55-1.43,1.11-2.8,1.62-4A30.59,30.59,0,0,1,127.46,99.3Zm.71-2.38.81-1.23-1.1,1.94.29-.71-.18.28,2.33-5.44,2.4-5.41-2.31,5.26Zm23.4-37.48c-.73,2.15.76,0,2.62-2.93s4-6.64,4.77-7.55c-.06-.6,1.77-4.71-4,5.31a64.7,64.7,0,0,1,3.85-6.57,15.66,15.66,0,0,0,2-4.14c-2.23,4.23-5.31,9.1-5.77,9.82.93-1.63,1.86-3.26,2.76-4.91C155.75,51,153.77,56.14,151.56,59.44ZM117.34,109.5c-1.52,1.95-3.09,3.85-4.63,5.78l4.44-5.44ZM110,72.22a13.7,13.7,0,0,1,1.93-3.09c.64-.88,1.37-1.84,2.08-2.74s1.43-1.7,2-2.32l.91.79a10.31,10.31,0,0,1-.88.82l.78-.91-.71-.61A78.35,78.35,0,0,0,110,72.22ZM83.23,93.86c-.61,1.37-1.09,2.8-1.61,4.26s-.93,2.92-1.27,4.43c-.17-.38.31-2.45,1.13-4.86.43-1.21.87-2.48,1.4-3.69l.69-1.64.62-1.42C85,89.81,83.54,92.5,83.23,93.86Zm5.4-11.56-1.7,2L89,82.45Zm2.75-2.49c-.42.74.26,0,1.14-1.09s1.92-2.5,2.31-3.06C93.68,77,92.56,78.44,91.38,79.81ZM58.58,112.92l-.27,2-.14,1-.07.5a2.11,2.11,0,0,0,0,.24l.06.07.53-.5-.42.29,0-.12a1.09,1.09,0,0,1,0-.24l.13-.56.25-1.08.48-2.05Q58.84,112.74,58.58,112.92Zm2.63.28c.25,0,.22.28,1.2-.48.49-.38,1.24-1,2.4-2.13.58-.55,1.26-1.18,2-2l2-2.09c0-.48-1.54,1.07.27-1.32l-1.35,1.32-1.22,1.25c-.86.9-1.62,1.67-2.2,2.25.79-.72,1.66-1.58,2.37-2.29a6,6,0,0,1,1.35-1.16c-.86,1-2.44,2.56-3.69,3.72s-2.41,2.24-3.21,2.9c-.16,0-.46.14-1.3.85C59.8,114.29,60.27,114,61.21,113.2ZM82.1,90.75c.65-.84,1.2-1.57,1.42-1.93l.37-.32a13.93,13.93,0,0,1-1.79,2.25l-2.45,3c-.37.86,3.37-3.17,4.4-4.2-1.74,2-3.41,3.51-5.58,6.21.37-.29.12.08,1.57-1.56l-3.14,3.62c-4,3.76-.51-.14,2.74-4.07a6.86,6.86,0,0,1,.83-1.28A21.1,21.1,0,0,1,82.1,90.75Zm-21,16-.55,2.52c-.39,1.47-.38.84-.56,1.44.29-1.62.67-3.5,1-4.46S61.41,105.18,61.14,106.74Zm45.29-31.23c-1.07,1.36,1.81-1.44,4.3-4.44l-1,1.84c-.28-.11-5.39,5.82-6,6.46C102.51,80.16,104.64,78,106.44,75.51Zm5.4,34.41c-.77.93-2.61,7.2-3.59,10.8v0l0,0c.62-.76,1.13-1.35,1.44-1.69l-1.38,1.74-.25.32.1-.4C109.55,115.17,112.27,106.94,111.84,109.92Zm-.23,5.91c1.72-2.11,2.16-2.76,2.19-2.37.91-1,2.16-2.73,3.06-3.72-3.12,4.3-3.25,3.78-5.26,6.08L110,117.76C110.67,116.9,111.16,116.32,111.61,115.82Zm-3.12-30.29L105.81,88c-1.22,1.45-2.45,2.89-3.64,4.36C104.23,90.06,106.35,87.78,108.49,85.53Zm-1.29-6.64c-.48.24,3.17-5.1,4.09-6.09-.48.15-3,3.67-4.89,6.57-.27.35-.67,1-1.25,1.9l1.25-1.9c.77-1,.4-.21.49-.15-.29.49-.58,1-.86,1.48.88-1.32,1.76-2.64,2.69-3.92C108.2,77.47,107.7,78.18,107.21,78.89ZM95,76a43.62,43.62,0,0,1,3.86-5.75C98.42,71,96.47,73.9,95,76Zm-1.79,31.47c2.1-6.14-1.5,2.77-.17-1.27L92.38,108l-1.65-.87.91-1.27-.87,1.3,1.56.82c1.17-3.52,1.34-2.51,2.54-5.76l-.9,2.44c-.49,2,1.63-3.63,2.06-4C94.9,103.47,92.34,109.94,93.17,107.51ZM98.56,71.1A29.73,29.73,0,0,1,102,66.36l-3.08-2.1a22.57,22.57,0,0,0-2.08,2.64c.79-1.34,1.35-2.18,1.81-2.82l3.61,2.46C101.16,68,100.54,68.37,98.56,71.1Zm14.67,1.19-.2.35c1.07-1.35,2.19-2.66,3.31-4l.22-.35C115.43,69.63,114.31,70.94,113.23,72.29Z" transform="translate(-10.41 -7.2)"/><path class="cls-1" d="M100.31,67.74c-.85,1.36-1.46,2.24-2,2.94Z" transform="translate(-10.41 -7.2)"/><path class="cls-1" d="M123,104.57a6.07,6.07,0,0,1,.78-1.26A7,7,0,0,1,123,104.57Z" transform="translate(-10.41 -7.2)"/><path class="cls-1" d="M130.74,94.45l.28-.39.25-.31Z" transform="translate(-10.41 -7.2)"/><path class="cls-1" d="M181.79,75.2C184,73.56,180,77,178.5,78.66A28.63,28.63,0,0,1,181.79,75.2Z" transform="translate(-10.41 -7.2)"/><path class="cls-1" d="M170.08,87.68c.9-.95,2-2.39,3.5-4.09C172.66,84.65,171.73,85.88,170.08,87.68Z" transform="translate(-10.41 -7.2)"/><path class="cls-1" d="M179.25,77.11l-3.12,3.48-2.56,3,2.15-2.66C176.59,79.93,177.66,78.74,179.25,77.11Z" transform="translate(-10.41 -7.2)"/><path class="cls-1" d="M175.38,72.86c1.13-1.1,2.73-2.9,3.85-4.21l-.48-.48-1.15,1.09c-.29.27-.44.44-.44.44l1.57-1.55.52.51c-2.32,2.8-1.35,1.85.22.19l-.93-.92c-1.65,1.31-3.72,3.45-4,3.73a32.28,32.28,0,0,1,4-3.8l1.05,1C178,70.48,177.23,71.07,175.38,72.86Z" transform="translate(-10.41 -7.2)"/><path class="cls-1" d="M165.44,84.07c.76-.88,1.49-1.72,2-2.39C166.79,82.54,166.12,83.32,165.44,84.07Z" transform="translate(-10.41 -7.2)"/><path class="cls-1" d="M162.84,87.39a54.82,54.82,0,0,1-5,5c3-3.69,5.28-5.71,7.65-8.33C163.62,86.17,161.81,88.2,162.84,87.39Z" transform="translate(-10.41 -7.2)"/><path class="cls-1" d="M146.15,70.64a22.5,22.5,0,0,1,.94-3c-.52,2.14-1.1,4.27-1.68,6.39-.41,1.26-.29.74,0-.26Z" transform="translate(-10.41 -7.2)"/><path class="cls-1" d="M138,93.55c-1.93,4.89-.61,2.47-1.68,4.92L136,98C136.69,96.53,137.37,95.05,138,93.55Z" transform="translate(-10.41 -7.2)"/><path class="cls-1" d="M136.77,90l.57-1.42-.62,1.64Z" transform="translate(-10.41 -7.2)"/><path class="cls-1" d="M126.83,119.06c.8-1.14,1.68-2.46,2.67-4C126.18,121.17,126.3,120,126.83,119.06Z" transform="translate(-10.41 -7.2)"/><path class="cls-1" d="M124.18,103.57l-1.25,2.83,1.8-4.49,1.86-4.46C125.78,99.49,124.94,101.52,124.18,103.57Z" transform="translate(-10.41 -7.2)"/><polygon class="cls-1" points="123.32 74.16 123.56 73.33 126.47 67.39 123.32 74.16"/><path class="cls-1" d="M121.85,73.62c-.51.19,1.11-1.54,3.17-3.55s4.55-4.3,5.65-5.37C129.5,66.52,124.41,70.26,121.85,73.62Z" transform="translate(-10.41 -7.2)"/><path class="cls-1" d="M95.67,70.4c-1.94,2.74-3.85,5.51-5.66,8.36,2-3.37,2.35-3.8,2.67-4.25S93.38,73.62,95.67,70.4Z" transform="translate(-10.41 -7.2)"/><path class="cls-1" d="M197.34,131.69l1.9-.56C197.46,131.73,196.58,132,197.34,131.69Z" transform="translate(-10.41 -7.2)"/><path class="cls-1" d="M220.92,120.14a76,76,0,0,1-10.4,6.4,68.93,68.93,0,0,1-11.28,4.59c1.43-.49,3.44-1.25,5.64-2.21s4.59-2.14,6.83-3.34C216.18,123.17,219.92,120.53,220.92,120.14Z" transform="translate(-10.41 -7.2)"/><path class="cls-1" d="M195.94,131.19a77.16,77.16,0,0,0,8-2.61,30.44,30.44,0,0,1-4.11,1.55Z" transform="translate(-10.41 -7.2)"/><path class="cls-1" d="M199,130.76l-.36.32c-1.44.42-2.91.76-4.37,1.1C195.87,131.75,197.45,131.29,199,130.76Z" transform="translate(-10.41 -7.2)"/><path class="cls-1" d="M143,171.84c.61-.64,1-1,.86-.6Z" transform="translate(-10.41 -7.2)"/><path class="cls-1" d="M128.12,185.73c-.44.28-.85.54-1.24.77l-.56.34-.13.08s0-.08-.05-.12l-.07-.3-.51-2.06.53,2.07c0,.64.44.14.79,0S127.66,186,128.12,185.73Z" transform="translate(-10.41 -7.2)"/><path class="cls-1" d="M154,157.8l-2.13,2.75C152.52,159.66,153.26,158.69,154,157.8Z" transform="translate(-10.41 -7.2)"/><path class="cls-1" d="M197.28,129.42a34.94,34.94,0,0,0,5.7-6.77,23.16,23.16,0,0,1-3.65,5A22.52,22.52,0,0,1,197.28,129.42Z" transform="translate(-10.41 -7.2)"/><path class="cls-1" d="M117.35,178.35l.07-.83C117.76,176.69,117.91,176.28,117.35,178.35Z" transform="translate(-10.41 -7.2)"/><path class="cls-1" d="M127.69,181.68c-.08.1-.15.09-.22,0l0-.41A4.3,4.3,0,0,0,127.69,181.68Z" transform="translate(-10.41 -7.2)"/><path class="cls-1" d="M162.28,146.75l.11-.16,1.83-2.16A20.5,20.5,0,0,1,162.28,146.75Z" transform="translate(-10.41 -7.2)"/><path class="cls-1" d="M129.63,155l.53-.57-3.76-3.29q-1.07,1-2,1.75c.83-.85,1.48-1.48,1.89-1.85l4,3.48C129.75,155.05,129.53,155.21,129.63,155Z" transform="translate(-10.41 -7.2)"/><path class="cls-1" d="M125.44,183.88s0,0,0-.05l.11.62Z" transform="translate(-10.41 -7.2)"/><path class="cls-1" d="M142.87,166.58,140,170.06C141.17,168.54,142.19,167.32,142.87,166.58Z" transform="translate(-10.41 -7.2)"/><path class="cls-1" d="M197.28,129.42c-.67.65-1.39,1.24-2.11,1.83C196.16,130.37,196.78,129.85,197.28,129.42Z" transform="translate(-10.41 -7.2)"/><path class="cls-1" d="M175.33,136.63a7.29,7.29,0,0,0-1.94,1.79c-.34.43-.53.66-.7.86A6.2,6.2,0,0,1,175.33,136.63Z" transform="translate(-10.41 -7.2)"/><path class="cls-1" d="M50.45,125.11l.86-.69C51,124.72,50.68,124.94,50.45,125.11Z" transform="translate(-10.41 -7.2)"/><path class="cls-1" d="M14.57,218.43l.66,1.32C14.68,219,14.49,218.46,14.57,218.43Z" transform="translate(-10.41 -7.2)"/><path class="cls-1" d="M92.21,179.84c-4.63,5-10.1,9.42-14.56,13.27l1.64-1.18c-1.52,1.27-3.06,2.52-4.61,3.77l.23.17c-3.79,3.13-8.1,6.59-11.89,9.42a77,77,0,0,1-8.68,5.87l1.21-.28c-1.47.94-2.94,1.87-4.43,2.76s-3,1.79-4.49,2.66q2.62-1.44,5.19-3c-2.43,1.64-5.23,3.41-8.12,5.12a56.79,56.79,0,0,1-8.5,4.42,15.39,15.39,0,0,1-7,1.18,10.58,10.58,0,0,1-3.46-1,5.31,5.31,0,0,0,.74.48,9.73,9.73,0,0,1-3.87-2.41,12.22,12.22,0,0,0,.89,1,16.42,16.42,0,0,1-3.76-3.87,24.12,24.12,0,0,1-2.37-4.17A33.25,33.25,0,0,1,14,205.9c-.84-5.58-.94-11.73,1.44-21.17.62-2.58.42-1.87,0-.51s-.85,3.38-.92,3.41a40.53,40.53,0,0,1,1.39-6,49.75,49.75,0,0,1,1.69-4.8c-1,1.31-3.09,9.32-1.66,3.19,1.55-4.21-1.35,2.79,1.24-4.68.47-.93,1-1.82,1.55-2.72a22.62,22.62,0,0,0,.88-2.82,27.17,27.17,0,0,1,1.86-4.49c1.82-3.52.89-1.27.22.41-.35.84-.59,1.56-.44,1.33s.74-1.36,2.12-4.22c.75-1.4,1.41-2.89,2.18-4.47s1.57-3.26,2.6-5A66.13,66.13,0,0,1,37,140.92c3.43-4.12,2.37-3.18,1.66-2.61-.35.29-.61.49-.16-.08.23-.28.63-.75,1.3-1.5l3-3c-1.14,1.11-2.31,2.19-3.42,3.34s-2.23,2.28-3.28,3.49c.72-1,.82-1.23,1.25-1.82.22-.3.52-.68,1.05-1.29s1.27-1.45,2.43-2.58c.79-.67,1.9-1.7,3.21-2.79l2-1.74,2-1.73c-2.71,2.22-3.42,2.9-3.28,2.63a24.09,24.09,0,0,1,2.39-2.51c1.14-1.12,2.32-2.26,2.6-2.57s-.46.05-3,2.15l1.85-1.61,1.9-1.54c-.49.37-.64.43-.41.19.85-.68,1.67-1.39,2.54-2l2.61-2-3.06,2.18L49,125.92c-1.83,1.46-2.85,2.25-1.3.63,1.18-1.06,2.43-2,3.64-3s2.51-1.93,3.77-2.89c-2.2,1.29.53-.89,0-.74a121.36,121.36,0,0,0-11.08,8.66,119.37,119.37,0,0,0-9.93,10c.82-.76,3.63-3.68,2.74-2.45-2.47,2.82-3.42,4-4.43,5.1-.5.54-.95,1.11-1.55,1.89s-1.37,1.75-2.31,3.24c.64-.82,1.34-1.59,2-2.38-.4.39-1,1.17-.12-.07,1.36-2.07,2.19-2.8,2.32-2.72-.69,1-2.09,3-3.52,4.82s-2.77,3.73-3.4,4.59a34.53,34.53,0,0,0-2.12,3.59c-.28.57-.23.62-.06.47.33-.29,1.1-1.35.64-.46a55.15,55.15,0,0,0-4.95,8.74c-1.72,3.52-3.13,7.29-4.23,9.88l1.58-3.26c-2.25,6.53-4.24,12.36-5.2,16.33l.6-1.48A55.89,55.89,0,0,0,10.49,196c-.11,3.33-.09,6.35,0,10.11l0-1A48.85,48.85,0,0,0,12,211.94a41,41,0,0,0,2.61,6.5c.15,0,.57.58,1.54,1.91a13,13,0,0,0,3.14,3.71,15.36,15.36,0,0,0,7.08,3.4,9.12,9.12,0,0,1-2.13-.73,6.31,6.31,0,0,1-1.06-.66c-.3-.2-.59-.43-1-.76s-1-.74-1.8-1.39a16.71,16.71,0,0,0,4.67,2.4,18.79,18.79,0,0,0,3.21.8,13.4,13.4,0,0,0,3.07.16,15.33,15.33,0,0,0,4.4-1c1.07-.45,1.32-.64,1.14-.59s-.84.27-1.67.53a22.19,22.19,0,0,1-2.75.67,9.84,9.84,0,0,1-1.93.18,21.47,21.47,0,0,0,8.38-2.66c2.57-1.34,4.89-2.93,7.15-4.38,4.48-2.95,8.45-5.68,11.67-7.38-1.3,1-2.59,2-3.92,3,3.91-2.37,5.92-3.81,5.42-3.56a10.77,10.77,0,0,1-2.12,1.3L71.34,203a144.57,144.57,0,0,0,13.75-11.3c-.87.58-2.4,1.86-2.56,1.81,4.61-4.44,5.27-3.51,12.41-11l-1.58,1.29c2.38-2.5,4.33-4.16,4.06-3.78-.09-.18.83-1.25,2.29-2.87a45.51,45.51,0,0,0,5.36-6.56,14.35,14.35,0,0,0,2-4.77,9.37,9.37,0,0,0,.13-2.68,8.37,8.37,0,0,0-.71-2.52,7.92,7.92,0,0,0-3.12-3.43A8.79,8.79,0,0,0,100,156a11.19,11.19,0,0,0-5.47-.47,18.54,18.54,0,0,0-6.72,2.67,47.73,47.73,0,0,0-5.57,4.18c-1.59,1.33-2.87,2.52-3.66,3.31-2.19,2.34-1.07,1.46.42.26s3.4-2.67,2.64-1.74l-5,4.29a58.14,58.14,0,0,0-5.9,6c-.51-.25,9.57-11.28-.35-1.26-.39.54-.76,1.09-1.13,1.64A51,51,0,0,1,73,170.75c1.52-1.37,1.14-.88.31,0s-2.06,2.31-2.32,2.71a77.46,77.46,0,0,0-9.15,12c-.48.36.45-1.41,1.68-3.31s2.75-3.89,3-4.3a66.25,66.25,0,0,0-6.64,10.6l-2.12,4.22,3.86-2.64c7.08-4.84,14.36-9.84,20.65-13.68l-1,.43c11.95-7.3,6.46-5.18,16.12-10.59,1.86-1.28,1.6-1.25,1.49-1.31s0-.28,3.57-2.59c2-1.29.49-.12.1.2l1.33-.84.57-.36.26-.17s0,0,0,0l0,.07-.07.13a25.84,25.84,0,0,0-1.57,3.37c-.29.74-.87,1.84-2.7,5.53l1.34-1.82a168.32,168.32,0,0,0-6.83,15.74,107,107,0,0,0-4.51,15.55l-1,4.77L92,200.47,93,199a6.55,6.55,0,0,0-1.19,1.37l-2.09,2.78.9-3.28c.59-2.13,1.51-5.82,2.18-7.53-.74,2.34-1.42,4.87-2.05,7.56l-.64,2.72,1.58-2.33c7.24-10.65,16.14-23.11,23.25-31.16-2.23,3.19,4.47-4.26-.61,2.3-1.73,1.36-3.93,4.59-6.68,8.08,2.59-2.54,7.14-8.49,11.5-13.82s8.47-10.05,9.55-10.55l.73-1.18L127,151.79l-.26.49c-1.37,1.51-4.56,5.63-2.58,2.63a67.08,67.08,0,0,0-3.91,6.25,66.32,66.32,0,0,0-3.23,6.61,78.57,78.57,0,0,1,5-8.42c2-3,4.2-5.68,5.31-7.27l1.74,1.52-.33.43c-1.38,1.23-.74.43.14-.61l-1.35-1.18c-1,1.33-2.2,3-.77,1.61a38.4,38.4,0,0,0-3.21,4.07,20.94,20.94,0,0,0-1.36,2.32l-3.6,7.27c.74-2.16-.55,0-1.83,2.73s-2.43,6.11-2.49,5.85l-.76,2.74-.43,1.66-.11.43c0,.15-.1.38-.14.59l-.27,1.27c-.4,1.72-.67,3.41-.93,5l-.71,4.41c.31-.15.61-.37.85-.51.88-.6,2-1.31,3.07-2.11s2.38-1.63,3.62-2.72l1.93-1.61,1.34-1.28c.92-.85,1.78-1.83,2.69-2.8a64.59,64.59,0,0,0,5-6.41,74.22,74.22,0,0,0,3.92-6.61,50.29,50.29,0,0,1-3.17,5c-1.07,1.46-2,2.43-2,2.16,2.89-3.59,5.1-8.2,5.05-9.16-1.88,3.6-3.16,5.57-3.93,6.83a18.33,18.33,0,0,0-1.24,2.35,9.06,9.06,0,0,1-1.14,2.1,33.19,33.19,0,0,1-4.73,5.28c-1.18.89-2.27,1.77-4,3-.79.63-1.68,1.2-2.6,1.85-.46.33-1,.65-1.47,1l-.79.51-.41.26-.21.13-.1.07s-.07.05-.06,0c.21-1.39.43-3,.75-4.65-.16,1.71-.1,2,0,2.09s.25-.14.38.16l-.2.9s0,0,0,.05l0,0,.07,0,.14-.07.29-.15.63-.34a13.28,13.28,0,0,0,1.4-.87,36.41,36.41,0,0,0,3.16-2.39,49,49,0,0,0,6.19-6.37,62.43,62.43,0,0,0,9.19-15.93,29.37,29.37,0,0,1,1.44-3.07,13.59,13.59,0,0,0,.61-1.27c.21-.58.47-1.38.81-2.59l.83-3L135.76,154c-.48.38-1.08.85-1.79,1.43a28.2,28.2,0,0,0-2.28,2.33,29.63,29.63,0,0,1,3.89-4l2.87-2.52-.76,3.83c-.3,1.51-.61,3-1,4.51.61-2.17.85-3.6,1.08-4.49l1.07-4.14-3.27,2.78a6.36,6.36,0,0,1-1.89,1.35,7.15,7.15,0,0,0-1,.8,20.4,20.4,0,0,0-2.57,2.8c.4-.49.87-.91,1.31-1.37l.67-.66.72-.61a33.15,33.15,0,0,0-4,5.09c-.46.68-.86,1.31-1.22,2s-.76,1.26-1.11,2a23,23,0,0,1,1.28-2.09c.43-.69.94-1.33,1.43-2a36,36,0,0,0-2.52,4.92,21.67,21.67,0,0,1-1.3,3c-.1.8-.08,1.08,0,1.11a8.07,8.07,0,0,0-.47,1.63,24.73,24.73,0,0,0-.58,3.9c.1-1,.26-1.94.35-2.58s.25-1,.32-1a20.88,20.88,0,0,0-.37,2.25,14.39,14.39,0,0,0-.16,1.78l-.06,1.34,0,1c.06,1.07.13,1.3.21,1.37s.14,0,.23.39c0,.21.1.54.16,1.07s.24,1.48.45,2.66c-.1-.8,0-.52.23.31l.48,1.58.14.48.07.25c.07,0,.16-.1.24-.15l1-.65c-.11.27.78-.08,2.4-1.12.2-.13.41-.27.63-.43l.61-.44c.38-.27.76-.58,1.17-.9.8-.66,1.66-1.39,2.49-2.19,3.38-3.19,6.62-7.2,8.12-8.73l0,0,7-8.46c-1.43,1.72-.1-.3,1.82-2.87l-.32.41c2.07-2.82-3.21,2.76,3.45-5.35l3.59-4.19c-.63.76-.14-.06.14-.5l3.67-4.33a109.4,109.4,0,0,1,7.79-10.06c1.38-1.64,2.81-3.31,4.26-5.09a18.29,18.29,0,0,0,3.78-6.66A14.3,14.3,0,0,1,176,129.2c-.77,1.06-1.23,1.52-.73.66a33,33,0,0,0,1.86-3.05,14.25,14.25,0,0,0,1.21-3.14l-.2.54a8.69,8.69,0,0,0,.28-2.73,8.11,8.11,0,0,0-.19-1.37c0-.23-.11-.44-.18-.69s-.2-.52-.29-.78a6.6,6.6,0,0,0-1.93-2.59,6.1,6.1,0,0,0-1.32-.82c-.23-.12-.48-.22-.72-.32-.06,0-.13-.08-.18-.05l-.13.13-.26.25-1,1-1,1.4-.86,1.16q-.37.49-.72,1c-.92,1.35-1.89,2.68-2.78,4.06.51-.62,2.3-3.22,3.68-5.1l1.16-1.53a6.39,6.39,0,0,1,.79-1c.32-.23.12-.1-.76,1.31-.54.92-1,1.57-1.53,2.42s-1.14,1.73-1.77,2.64c-1.25,1.82-2.49,3.74-3.41,5.24,0-.49,3.29-6.14-.23-.58-.31.75-3.19,6.3-1.62,3.8a192.3,192.3,0,0,0-9.91,20.19c-.59,1.82.54-1,.92-1.89l.12-.47a13.8,13.8,0,0,1,1.31-2.52c.33-.56.77-1.6,2.3-5.27.22-.08,0,.53-.38,1.6l-1.8,4.36c-1.49,3.51-3.17,8-4.23,11.28.66-1.73,1.34-3.45,2-5.16s1.41-3.41,2.19-5.09c-1.9,5.49-3.89,11.59-5.72,18s-3.49,13.08-4.84,19.67h.65a75.56,75.56,0,0,1,.54-22.73c-.72,5.31-1,9.78-.45,9.16.18-2.81.45-4.81.69-6.41s.47-2.8.69-4,.49-2.39.9-3.95.94-3.5,1.88-6.13c-.11.3-.24.6-.34.9a44.18,44.18,0,0,1,1.54-4.38,6.87,6.87,0,0,1,2.26-3.44,7.93,7.93,0,0,1,3.71-.89,33.34,33.34,0,0,0,3.58-.33c-.65,0-1.5,0-2.41,0a20.65,20.65,0,0,0-2.64.21c-1.64.23-2.53.94-2.75.77a5.81,5.81,0,0,1,2.94-1c1.11-.14,2.3-.12,3.52-.17,2.42-.08,4.83-.25,7.24-.52-2.28.12-5.93.36-9.61.47-1.8.09-3.57.47-4.57,1.6a13.57,13.57,0,0,0-2.07,4c-.7,1.84,0,0,.93-2a5.46,5.46,0,0,1,1.64-2.12c.53-.34.86-.39.58-.14a6.14,6.14,0,0,0-2.21,3.06c-.51,1.25-1,2.38-1.38,3.44-.81,2.09-1.37,3.83-1.88,5.36-1,3.08-1.68,5.38-2.42,8.6-.47,2-.39.5-.08-1.77a63.21,63.21,0,0,1,1.32-6.5c.7-2,1.49-4.28,2.49-6.65.51-1.18,1-2.43,1.62-3.64a5.37,5.37,0,0,1,2.71-2.77,11.7,11.7,0,0,1,4.23-.62c1.53,0,3.11-.09,4.7-.2a68.73,68.73,0,0,0,9.75-1.37,60.69,60.69,0,0,0,7-2.25c3.19-.87,4.16-1.05,5.75-1.49a20.68,20.68,0,0,0,3.12-1.27,31.26,31.26,0,0,0,5.64-3.65c-1,.66-2.06,1.3-3.14,1.87,2.16-1.55,3.45-2.73,4.43-3.56a39.42,39.42,0,0,1-6.63,4.3,45.37,45.37,0,0,1-6.9,2.84,68.62,68.62,0,0,0,11.66-6.63,34.19,34.19,0,0,0,10.32-12c-.08.11-.22.39-.42.76l-.75,1.27a16,16,0,0,1-1.59,2.22,32.28,32.28,0,0,0,4.58-10.18,16.61,16.61,0,0,0,.63-5.55,5.11,5.11,0,0,0-1-2.65,4.07,4.07,0,0,0-2.45-1.47,5.36,5.36,0,0,0-2.81.37,10.74,10.74,0,0,0-2.37,1.36,16,16,0,0,0-3.6,3.79l-2.73,4-2.4,3.81c-1.12,2.17.13.13,1.6-2.14s3.22-4.73,2.73-3.63c-3.47,5-6.48,11.11-7.56,12.35.88-1-.78,2-1.84,4.12s-1.64,3.2,1.25-1.8c-9.33,18.08-17.07,39-24.07,58.56l.61.12c.14-1.44.27-2.86.45-4.26-.28,1-.42,1-.44.1-.14,1.27-.25,2.64-.38,4.14l0,.47.16-.45c2.24-6.45,5.05-14,6.53-17.15-1.38,4.69-4.18,10.78-4.48,12.17.94-2.32,2.56-7,2.86-7-1.6,5.41-3,8.57-4.36,12.15L160,189.94l.51-4.93.16-1.51,0,1.52-.1,4.21,1.12-4,.25-.89-.33.86-1.23,3.26.38-3.43c.35-3.18.67-5.21,1-6.68s.52-2.4.75-3.37.47-2,.78-3.68.76-4,1.55-7.52c.94-5.29-.3,0-.72,0,.46-1.69,1.29-5.3,2.34-8.87a57,57,0,0,1,3.15-8.72q-1.56,4.22-2.87,8.52a113.76,113.76,0,0,1,6.07-15.42,6.7,6.7,0,0,0-1.1,1.85,14.74,14.74,0,0,1,2-3.41,6.59,6.59,0,0,1,3.3-2.1,15.75,15.75,0,0,1,3.45-.54c1-.06,1.92-.1,2.56-.1l1.34-.61c-.73.13-1.83.3-3.1.45a24.1,24.1,0,0,0-4.05.69,7.15,7.15,0,0,0-3.29,1.91,15.64,15.64,0,0,0-1.41,1.86,4.62,4.62,0,0,1,.93-1.8,6.61,6.61,0,0,1,3.26-2.24,18.82,18.82,0,0,1,4.39-.73c1.41-.13,2.69-.25,3.67-.39-1.07.14-2.09.22-3,.32s-1.86.14-2.73.26a9.81,9.81,0,0,0-4.49,1.53,8.64,8.64,0,0,0-2.51,3c-.57,1-1,2-1.4,2.91a85.68,85.68,0,0,0-5.13,14.37l.84-2.36c-2.39,8.89-4.77,18.11-5.58,26.18.15-2.27.07-2.75-.15-1.7-.21,2.11-.37,4.22-.51,6.33l-.63,9.62,3-9.14c2.44-7.43,5-14.84,7.77-22.44s5.82-15.4,9.39-23.54c1-1.79,2-3.55,3-5.31l-.15-.49c2.1-4.46,2.48-4.87,2.63-4.89s.11.33,1.6-2.46c-1.13,2.12-1,1.71-1.28,2.12,2.82-5,3.57-6.35,3.95-7.24a17.58,17.58,0,0,1,2.1-4,64,64,0,0,0-3.73,5.89c-1.17,2-2,3.45-1.51,2.07.71-1.24,1.48-2.56,2.3-3.92s1.64-2.77,2.53-4.16,1.75-2.81,2.67-4.15,1.77-2.75,2.67-3.81a13.3,13.3,0,0,1,3-2.63,5.34,5.34,0,0,1,2.8-.9,2,2,0,0,1,1.52.72,1.09,1.09,0,0,1,.36.79,5.24,5.24,0,0,1,.55,3,14.79,14.79,0,0,1-.23,1.88,17.73,17.73,0,0,1-.39,1.93,27.37,27.37,0,0,1-3.06,7.45,35.54,35.54,0,0,1-11.62,11.7,48.36,48.36,0,0,1-15,5.9,80.28,80.28,0,0,1-14.35,1.74c-2.39.23,1.5.06.59.2-.89,0-1.86,0-3,0a12.36,12.36,0,0,0-4.15.66,6.76,6.76,0,0,0-2.23,1.36,7.87,7.87,0,0,0-1.53,2,32.44,32.44,0,0,0-1.6,3.84c-1.78,4.88-2.61,9.1-2.84,9.1a29.06,29.06,0,0,0-.62,5.89,66.19,66.19,0,0,0-1,7.48,68.6,68.6,0,0,0-.09,8.5c-.06-1.44-.05-2.88,0-4.31l.06.47c0,2,0,4.08.15,6.11l0-.22c.11,1.41.28,2.84.47,4.3l1.26,9.6,1.87-9.54c1.27-6.49,2.86-13.26,4.77-19.74a145.27,145.27,0,0,1,6.52-18c-3,6.8.2-1.93-1.25,1.27,1.54-2.92,3.81-8,6.77-13.61,1.48-2.8,3.09-5.74,4.84-8.6.86-1.44,1.74-2.87,2.66-4.24l1.35-2.06,1-1.4c-.11-.08.09-.56-.37-.11l.51-.6.24-.28c0-.08.11,0,.17,0l.17.11a2.22,2.22,0,0,1,.84,1.22,2,2,0,0,0,0-.45,2.77,2.77,0,0,1,.23.48l.12.4c0,.16.08.32.1.48a5.86,5.86,0,0,1,0,2,10.7,10.7,0,0,1-1.75,4c-.86,1.29-1.91,2.56-3,3.86l-3.11,3.79c-4.07,5-7.78,9.48-10.38,13,3.44-4.24,3.57-4.17,4.09-4.46-5.94,7.51-11.54,14.61-18.63,23.27.4-.45.68-.72.73-.7-1.77,2.33-4.08,5-6,7.27v.53a79.42,79.42,0,0,1-6.4,6.79q-.45.42-.93.82l-.47.4-.43.34a10.88,10.88,0,0,1-1,.67l-.48.29a1.89,1.89,0,0,1-.23.12l-.06-.3a7.42,7.42,0,0,1-.17-1.14,1.59,1.59,0,0,1-.18-.61,18.35,18.35,0,0,1-.17-2.15,25.88,25.88,0,0,1,.56-6A31.35,31.35,0,0,1,133.1,161c.87-1.1-.12.06-.73.73-.31.33-.52.54-.37.26s.25-.4.55-.83l.55-.77.84-1a6.88,6.88,0,0,0,1.41-1.06c.61-.59,1.44-1.24,2.27-2l-3.14-1.94c-.6,2.78-1.53,5.72-2.08,5.9a49.38,49.38,0,0,1-2.48,6.61l-1.07,1.2a23.79,23.79,0,0,1-4.17,6.72c-1.75,2-3.82,4.17-7,7.23.4-.26,1.12-.88.82-.53l-.43.38c-.15.13-.36.32-.36.31l-.29.21a1.25,1.25,0,0,1-.37.21c-.16.05,0-.11.14-.38a1.09,1.09,0,0,1-.22.13l.07-.33.49-2.07c.58-2.21.73-3-.21-.26.09-.11,0,.2-.09.79l-.25,1.05-.09.36,0,.08c-.08.22-.22.65-.31,1s-.25,0-.22-.5l0-.4,0-.21a.94.94,0,0,1,0-.12l.06-.32a21.25,21.25,0,0,0,.33-2.16c.1-.22.42-1.12.66-1.77,0-.35.07-.7.11-1A80.77,80.77,0,0,1,123,164.3a49.45,49.45,0,0,1,6.64-9.33,4.57,4.57,0,0,1,.41-.67l-3.52-3.08c-.49.62-1.47,1.71-3,3.34l-.41-.18q-3.36,3.7-6.61,7.5l3.54-3.12c-7.12,8.31-12.48,13.9-18,21-.37,1-2.59,3.94-5.2,7.51s-5.64,7.79-7.75,11.28l4.59,1.91q.24-1.33.4-2.47l-.61,2.43-4.2-1.75L91.88,195l-2.5,3.71,4,1.68c1.17-5.37,2-8.81,3.05-12.37A108.18,108.18,0,0,1,101,175.18c-1.93,5.14-2.83,7.92-3.81,11.16a126.07,126.07,0,0,0-3.34,14.19L89,198.47c.2-.36.69-1.14,1.21-2l-1.25,2,5,2.1a125.54,125.54,0,0,1,5.94-20.39c1.19-3.12,2.46-6.17,3.84-9.25,2.42-5.52,6.51-13,9.66-19.25l-1.45,1,1.15-.62c-.82,1.43-1.74,3.07-2.14,3.7s-.27.27.92-2.15l.31-.53c-.1,0-.2.08-.34.15l-.52.31-1.24.76-3.11,2-7.13,4.61-3.16,2-1.27.81-.58.35c-.67.4-.93.5-.51.1-4,2.8-4.54,3.6-7,5.28l-14.11,8.54.47-.2c-4.72,3.3-9.36,6.43-14,9.44l3.27,3C67.75,181,74.81,173.6,82.58,167c3.95-3.28,7.89-6.75,12.08-7.78a9.54,9.54,0,0,1,1.51-.26,8.41,8.41,0,0,1,1.5,0,8,8,0,0,1,2.86.78,5.38,5.38,0,0,1,2.05,1.66,4.34,4.34,0,0,1,.81,2.33c.07-.12.15-.24.21-.37a8.48,8.48,0,0,1-1.78,4.86c.65-1,.83-1.35.88-1.35a2.3,2.3,0,0,1-.31.88c-.45,1-1.52,2.59-1.59,2.8a41.76,41.76,0,0,1-2.91,3.12c-1.06,1-2.1,2.11-3.17,3.15Q91.52,180,88.23,183C88.09,183.39,89.16,183,92.21,179.84Zm31-24.84,2.92-3.15.47-.53,3.3,2.89c-.38.49-.78,1-1.23,1.5l1.22-1.51-3.27-2.86-.48.51C124.71,153.51,123.75,154.82,123.24,155Zm80.06-39c.37-.91.22-.22-.18.83s-1.07,2.44-1.36,3.06a28,28,0,0,0,2.34-6.19C204.22,112.76,203.67,115.08,203.31,116Zm-77.86,40.67-1.38,2-2.18,2.13Q123.65,158.68,125.44,156.65ZM91.87,194.71q-.7,2.54-1.32,5.11l-.86,3.55,2.13-3,.45-.64-.23.45-.16.23-2.35,3.34,1-3.92c.45-1.85.93-3.7,1.44-5.54ZM80,174.61l1-.59-1,.59c-4,2.37-5.3,3.8-8.75,5.45A54.87,54.87,0,0,1,80,174.61Zm29.76-3.1c1.33-1.54,2-2.31,2.89-3.47-.81.7-3.56,3.72-1.73,1.36,1.44-1.51,6-6.79,6.25-6.67C113,167.13,111,171,109.78,171.51Zm17.82,11.7-.2-.66.13.74s0,.17.05.15l.14-.07.29-.15c.39-.21.8-.45,1.23-.73-.32.18-.61.36-.9.49l-.41.19-.19.08C127.68,183.27,127.59,183.36,127.6,183.21Zm15.79-16.42c2.19-2.19,7-8.45,10.49-12.69.63-1.31-3.09,2.83-7.05,7.91C141.94,167.76,145.44,164.54,143.38,166.79ZM95.5,188.07l-.67,1.39.38-1.38c-.62,1.88-1.21,3.78-1.75,5.69,1.63-7.68,4.16-12.75,5.68-16.42-.63,1.62-1.91,4.61-2.78,7.08S94.94,188.77,95.5,188.07Zm80.71-64.73a6.47,6.47,0,0,0,.15-1.92,6.3,6.3,0,0,0-.44-1.94,4.07,4.07,0,0,0-1-1.49,3.52,3.52,0,0,0-.77-.52l-.21-.1-.13.16-.26.32-2,2.43c-.55.7-.84,1-.77.82.05.14.37-.16.85-.72.25-.27.55-.62.85-1l.73-.86.72-.89a3.32,3.32,0,0,1,1,.62,4.18,4.18,0,0,1,1,1.45,5.07,5.07,0,0,1,.41,1.55A6.28,6.28,0,0,1,176.21,123.33Zm.83.45A12.52,12.52,0,0,1,175,128a29.29,29.29,0,0,1-2,2.47l-4.51,4.87a70,70,0,0,1,5-6.1c.95-1,1.28-1.15,1.13-.7a10.5,10.5,0,0,0,2.12-4,9.75,9.75,0,0,0,.21-2.57A6.77,6.77,0,0,1,177,123.79ZM172,130.07l-2,2.6c-2.23,3.15-2.29,4.12-6.07,8l6.07-8C170.51,132,171.15,131.11,172,130.07Zm-18.8,31.07c.39-1,.75-2,1.16-3-1,3-1.18,3.39-1.16,3-.31.85-.65,1.69-.95,2.55C154.19,156.89,153.26,160.41,153.17,161.14Zm21.49-42.48a2.87,2.87,0,0,1,.8,1,3.68,3.68,0,0,1,.24.59,5.93,5.93,0,0,1,.22.92,7,7,0,0,1-.56,3.86,5.48,5.48,0,0,0,.75-3.11,6.36,6.36,0,0,0-.19-1.21c0-.19-.13-.43-.17-.55a4.08,4.08,0,0,0-.17-.38A2.83,2.83,0,0,0,174.66,118.67ZM153.4,159c.61-1.88,1.75-5.27,2.79-8s1.89-4.76,1.62-4.09c-.05.48-1,2.88-2,5.49Zm18.93-4.1c.74-1.84,1.45-3.69,2.22-5.52l-.76,2.79Zm33.2-42.72c0-.49.06-1,0-1.46a8.63,8.63,0,0,0-.19-3.31A10.33,10.33,0,0,1,205.53,112.19Zm-50.59,30.59c.29-.13.11-.2-.45-.15a8.12,8.12,0,0,0-2.25.86,4.63,4.63,0,0,1,2.25-.86,26.1,26.1,0,0,1,4.45-.37c1.5-.06,2.89-.18,3.75-.3-.52,0-1.77,0-3.08,0l-3.5.05c1.54-.24,3.43-.21,5.43-.32s4.07-.18,5.83-.37c3.54-.35,5.83-.87,3.89-1.07,1.22-.15,3.91-.6,5.91-1.07s3.34-.82,2-.25a72.82,72.82,0,0,1-12.56,2.7c-2.31.3-4.59.49-6.6.62a30.87,30.87,0,0,0-5.06.49,13.91,13.91,0,0,0-1.88.79A5.47,5.47,0,0,1,154.94,142.78Zm1.69,4c.93-2.25,1.43-3.19,1.65-3.62.92-1.89,1.7-3.27,1.59-2.65-2.2,4.58-1,1.56-1.59,2.65S157.13,145.6,156.64,146.82Zm6.45-13.94-1.93,3.49-1.83,3.55,2-3.52c-1.89,3.54-3.74,7.11-5.36,10.79l.94-2.46,1.06-2.42c.69-1.6,1.46-3.11,2.16-4.44s1.34-2.49,1.88-3.35A13.52,13.52,0,0,1,163.09,132.88Zm1.16-2.57,1-1.3-1.48,2.06.43-.76-.24.3a133.6,133.6,0,0,1,7.23-11.36C168.75,122.83,166.37,126.49,164.25,130.31ZM133.57,157.6c1.49-2.08-1-.28-3.35,3a30.83,30.83,0,0,0-3.08,5.35c-.8,1.75-1.32,3.26-1.59,3.89a6.71,6.71,0,0,1,0,1c0,.37,0,.67.16.54a12.8,12.8,0,0,0,.73-2,34.88,34.88,0,0,1,2.72-6.25,42.18,42.18,0,0,0-2.37,5.54l-.85,2.53a12.52,12.52,0,0,0-.46,5.21,27.29,27.29,0,0,1,1.6-7.95c.22-.57.42-1.1.62-1.59l.61-1.28c.34-.76.67-1.25.78-1.46-.52.93-.89,1.92-1.32,2.89s-.73,2-1,3c.74-1.65,1.5-3.95,2.62-6.24A22.13,22.13,0,0,1,133.57,157.6Zm-14.39,9.54a67.38,67.38,0,0,1,4.07-7.37,65.58,65.58,0,0,0-3.92,6.94ZM83,162.77a19.81,19.81,0,0,1,3.91-3.54,21.47,21.47,0,0,1,3.87-2.36,10.4,10.4,0,0,1,3.14-1,21.72,21.72,0,0,0-7.18,3.67A33.23,33.23,0,0,0,83,162.77ZM65.48,206.68q3.83-2.78,7.57-5.69c-1.1,1.55-6.62,5.28-10.17,7.95C61.49,209.65,64.4,207.7,65.48,206.68Zm-51.16,8.48c-.38-.94-.7-1.89-1-2.86a30.71,30.71,0,0,0,.67,3.17Zm1.39,4c-.61-.78-.1.3.85,1.65a16.72,16.72,0,0,0,3.12,3.36A20.89,20.89,0,0,1,15.72,219.2Zm3.38-54.27c-.57,1.2-1.05,2.45-1.58,3.67.62-1,1.22-2.09,1.85-3.12Zm-2,6A4.75,4.75,0,0,0,16,172.45,43.36,43.36,0,0,0,13.39,180c.23.46.91-1.93.36,1.44l2-6.68c-.71,1.92-1.35,4.26-1.7,4.74.41-1.66,1-3.29,1.49-4.78s1.1-2.76,1.52-3.73a8.84,8.84,0,0,0,1-1.78A5.14,5.14,0,0,0,17.08,171Zm-5.74,32.39a20,20,0,0,0,.44,2.7v.56a14.55,14.55,0,0,1-.34-1.72c-.05-.54-.08-1.06-.09-1.54-.15-1.32-.24-2.86-.27-4.46-.14-.51-.28.81-.33,2.47s.05,3.68.11,4.53a87.17,87.17,0,0,1-.13-9.64c-.12.52-.16,0-.24,2.54,0-1.84.09-3.69.29-5.52.58-3.11.76-3.14.64-1.7s-.39,4.4-.34,7.33a9,9,0,0,1,.21,1.73C11.36,201.57,11.32,202.43,11.34,203.36Zm11-41.69c-.49.86-.92,1.75-1.38,2.62-.76,1.32-.44.4-.75.85C21.72,162,24.1,158.1,22.38,161.67Zm83.5,1.32c.1.94.28.31,0-1.1a6,6,0,0,0-1.09-2.41,7.5,7.5,0,0,0-2.45-2.11,8.54,8.54,0,0,1,2.18,1.14,14.69,14.69,0,0,0,.84,1.3,7.81,7.81,0,0,1,1,3.12,10.09,10.09,0,0,1-1,5.28c-.51.64-.34.18,0-.84A8.34,8.34,0,0,0,105.88,163Zm13.87-1.19c1.1-.67,5.54-5.84,8.49-9h0l-1.94,2.42c.5-.73,1.17-1.55,1.87-2.48l.15.13C124,157.63,118,164.6,119.75,161.8Zm4.6-2.81c-1.67,2.59-2,3.4-2.1,3-.87,1.23-1.88,3.46-2.63,4.78a25.69,25.69,0,0,1,2.6-4.85c.61-.9,1.16-1.48,2.12-2.9.46-.66,1-1.42,1.64-2.34C125.28,157.66,124.8,158.38,124.35,159Zm-27.89,6.35-3.67,1.91-5.38,3.53ZM78,169.26a12.39,12.39,0,0,1,2.37-2.44c1.44-1.33,3.15-2.74,3.77-3.19-.55.07-4.3,3.28-7.11,6-.38.33-1,.89-1.86,1.79l1.86-1.79c1.1-1,.47-.15.55-.08L76.29,171c1.3-1.25,2.62-2.47,4-3.66C79.5,167.95,78.78,168.61,78,169.26ZM44.44,218.78a36,36,0,0,1-6.73,3.88Zm24.24-36.54c-6.16,4.18,3.24-1.57-.77,1.21l3.25-2.15c-5.13,3.71-4,2.18-7.65,4.67L66,184.3c1.82-1.52-3.93,2.32-4.52,2.43C64.29,184.74,71.12,180.57,68.67,182.23ZM38.38,222a15.42,15.42,0,0,1-5.54,2.16,31.74,31.74,0,0,1-3.67.2A19.76,19.76,0,0,0,32,224l1.8-.37A17.28,17.28,0,0,0,38.38,222Zm48-58.58-.31.33a35.77,35.77,0,0,1,4.62-3.13l.34-.26A33.34,33.34,0,0,0,86.33,163.45Z" transform="translate(-10.41 -7.2)"/><path class="cls-1" d="M30.67,227.65a12.83,12.83,0,0,1-4.34-.19A15.82,15.82,0,0,0,30.67,227.65Z" transform="translate(-10.41 -7.2)"/><path class="cls-1" d="M114.67,174.43a8.1,8.1,0,0,1-.38,1.67A9.25,9.25,0,0,1,114.67,174.43Z" transform="translate(-10.41 -7.2)"/><path class="cls-1" d="M111.1,192.16l.68-.46.54-.33Z" transform="translate(-10.41 -7.2)"/><path class="cls-1" d="M173,139.94c.41-.62.56-.73.5-.59l-.61,1.21c-.59,1.26-1.48,3.23-1.92,4.37.44-1.16.72-2,1-2.72A10.79,10.79,0,0,1,173,139.94Z" transform="translate(-10.41 -7.2)"/><path class="cls-1" d="M165.93,158l2-5.79C167.42,153.75,166.84,155.41,165.93,158Z" transform="translate(-10.41 -7.2)"/><path class="cls-1" d="M171.21,143c-1.36,3.54-2.44,6.66-3.32,9.2A85.71,85.71,0,0,1,171.21,143Z" transform="translate(-10.41 -7.2)"/><path class="cls-1" d="M169.24,161.34c-1.28,2.8-3.15,8.4-3.15,8.4,4.14-12.18-1.29,2.29-1.77,3.26A97.59,97.59,0,0,1,169.24,161.34Z" transform="translate(-10.41 -7.2)"/><path class="cls-1" d="M175.57,145.54c-.52,1.21-1,2.39-1.32,3.31C174.68,147.67,175.1,146.58,175.57,145.54Z" transform="translate(-10.41 -7.2)"/><path class="cls-1" d="M177.26,141.05c.94-2,1.63-3.36,2.21-4.42s1.09-1.81,1.62-2.69c-2.16,4.93-3.87,7.93-5.51,11.6C176.8,142.63,178.07,139.81,177.26,141.05Z" transform="translate(-10.41 -7.2)"/><path class="cls-1" d="M148.36,157.83a18.24,18.24,0,0,1,1.09-3.3c-.69,2.32-1.3,4.68-1.76,7.06C147.07,164.45,148,159.24,148.36,157.83Z" transform="translate(-10.41 -7.2)"/><path class="cls-1" d="M146.11,184.61l.15,1.15-1.67,0c.83-4.28,0-1.94.67-4.67l.4.43-1,4.25,1.58,0Z" transform="translate(-10.41 -7.2)"/><path class="cls-1" d="M143.33,181.57c0-.6-.05-1.2-.08-1.79,0,.67.06,1.33.13,2Z" transform="translate(-10.41 -7.2)"/><path class="cls-1" d="M150.93,158.86l-1.76,3.8C150.81,157.88,151.25,158,150.93,158.86Z" transform="translate(-10.41 -7.2)"/><path class="cls-1" d="M159.09,137.47c-.55,1-1.14,2.07-1.66,3.13.78-1.67,1.63-3.31,2.44-5s1.73-3.26,2.64-4.86c-.62,1.09-1.17,2.22-1.75,3.33S159.63,136.33,159.09,137.47Z" transform="translate(-10.41 -7.2)"/><path class="cls-1" d="M175.66,115.61a7.29,7.29,0,0,1,1.07.74,7.54,7.54,0,0,1,1.47,2.32,6.32,6.32,0,0,1,.24.65c.06.2.11.37.15.55a9.25,9.25,0,0,1-.34,5.43,9.41,9.41,0,0,0,.39-4.88,8.14,8.14,0,0,0-1-2.66A6.72,6.72,0,0,0,175.66,115.61Z" transform="translate(-10.41 -7.2)"/><path class="cls-1" d="M100.62,168.31c.21-.18.13.15-.14.87-.36,1-1,2.33-1.57,3.86-1.25,3-2.6,6.67-3.12,8.34a27.7,27.7,0,0,1,2-6l1.6-3.83A27.24,27.24,0,0,0,100.62,168.31Z" transform="translate(-10.41 -7.2)"/><path class="cls-1" d="M40.76,223.91c3.4-1.84,6.63-3.82,9.9-5.83-3.71,2.45-4.25,2.75-4.81,3l-1.27.68C43.86,222.18,42.77,222.84,40.76,223.91Z" transform="translate(-10.41 -7.2)"/><text class="cls-2" transform="translate(78.93 215.8)"><tspan xml:space="preserve">[ H U N T E R   G R A F F ]</tspan></text></svg>